<svg width="35" height="35" viewBox="0 0 35 35" fill="none" xmlns="http://www.w3.org/2000/svg">
<path fill-rule="evenodd" clip-rule="evenodd" d="M14.2593 30.6248H20.7408C25.2924 30.6248 27.5681 30.6248 29.2029 29.5523C29.9105 29.088 30.5182 28.4914 30.9911 27.7966C32.0834 26.1916 32.0834 23.9571 32.0834 19.4883C32.0834 15.0197 32.0834 12.7853 30.9911 11.1802C30.5182 10.4854 29.9105 9.88877 29.2029 9.4245C28.1523 8.73536 26.8374 8.48905 24.8238 8.40101C23.8629 8.40101 23.0358 7.68616 22.8474 6.76111C22.5646 5.37355 21.3237 4.37476 19.8826 4.37476H15.1176C13.6764 4.37476 12.4355 5.37355 12.1529 6.76111C11.9644 7.68616 11.1372 8.40101 10.1763 8.40101C8.16285 8.48905 6.84776 8.73536 5.79731 9.4245C5.08959 9.88877 4.48195 10.4854 4.00907 11.1802C2.91675 12.7853 2.91675 15.0197 2.91675 19.4883C2.91675 23.9571 2.91675 26.1916 4.00907 27.7966C4.48195 28.4914 5.08959 29.088 5.79731 29.5523C7.4321 30.6248 9.70784 30.6248 14.2593 30.6248ZM17.5001 13.5225C14.1442 13.5225 11.4237 16.1935 11.4237 19.4883C11.4237 22.7833 14.1442 25.4542 17.5001 25.4542C20.856 25.4542 23.5765 22.7833 23.5765 19.4883C23.5765 16.1935 20.856 13.5225 17.5001 13.5225ZM17.5001 15.9089C15.4866 15.9089 13.8542 17.5114 13.8542 19.4883C13.8542 21.4653 15.4866 23.068 17.5001 23.068C19.5136 23.068 21.1459 21.4653 21.1459 19.4883C21.1459 17.5114 19.5136 15.9089 17.5001 15.9089ZM24.3866 14.7157C24.3866 14.0567 24.9307 13.5225 25.602 13.5225H27.2224C27.8935 13.5225 28.4376 14.0567 28.4376 14.7157C28.4376 15.3747 27.8935 15.9089 27.2224 15.9089H25.602C24.9307 15.9089 24.3866 15.3747 24.3866 14.7157Z" fill="white"/>
</svg>
