<svg width="40" height="40" viewBox="0 0 40 40" fill="none" xmlns="http://www.w3.org/2000/svg">
<path d="M38.8781 29.9214H30.1746V34.4135H38.8781V29.9214Z" fill="url(#paint0_linear_45_1899)"/>
<path d="M9.82534 29.9214H1.12183V34.4135H9.82534V29.9214Z" fill="url(#paint1_linear_45_1899)"/>
<path d="M39.6282 12.3392C39.1414 11.5083 38.276 11.0121 37.313 11.0121H34.3467L32.3961 5.58667H7.60371L5.65308 11.0121H2.68691C1.72394 11.0121 0.858474 11.5082 0.371755 12.3392C-0.114964 13.1703 -0.12426 14.1677 0.346833 15.0076L1.12176 16.3893V26.4039V27.3128H38.8783V26.4039V16.3892L39.6532 15.0075C40.1242 14.1677 40.1149 13.1702 39.6282 12.3392ZM9.43785 8.19519H30.562L32.9164 14.7444H7.08332L9.43785 8.19519ZM12.3026 22.827H6.66191V20.2185H12.3026V22.827ZM33.3379 22.827H27.6971V20.2185H33.3379V22.827Z" fill="url(#paint2_linear_45_1899)"/>
<defs>
<linearGradient id="paint0_linear_45_1899" x1="30.1746" y1="32.1674" x2="38.8781" y2="32.1674" gradientUnits="userSpaceOnUse">
<stop stop-color="#1A82B7"/>
<stop offset="1" stop-color="#0030AB"/>
</linearGradient>
<linearGradient id="paint1_linear_45_1899" x1="1.12183" y1="32.1674" x2="9.82534" y2="32.1674" gradientUnits="userSpaceOnUse">
<stop stop-color="#1A82B7"/>
<stop offset="1" stop-color="#0030AB"/>
</linearGradient>
<linearGradient id="paint2_linear_45_1899" x1="-1.49011e-07" y1="16.4497" x2="39.9999" y2="16.4497" gradientUnits="userSpaceOnUse">
<stop stop-color="#1A82B7"/>
<stop offset="1" stop-color="#0030AB"/>
</linearGradient>
</defs>
</svg>
