<svg width="35" height="35" viewBox="0 0 35 35" fill="none" xmlns="http://www.w3.org/2000/svg">
<path fill-rule="evenodd" clip-rule="evenodd" d="M17.5004 4.01038C16.0734 4.01038 14.8566 4.92188 14.4056 6.19777C14.2042 6.76731 13.5794 7.06583 13.0098 6.86452C12.4403 6.66322 12.1418 6.03833 12.3431 5.46881C13.0933 3.34624 15.1175 1.82288 17.5004 1.82288C19.8832 1.82288 21.9075 3.34624 22.6576 5.46881C22.859 6.03833 22.5605 6.66322 21.9909 6.86452C21.4214 7.06583 20.7965 6.76731 20.5953 6.19777C20.1442 4.92188 18.9274 4.01038 17.5004 4.01038Z" fill="white"/>
<path d="M20.4167 18.2291H14.5834C14.1807 18.2291 13.8542 18.5556 13.8542 18.9583V22.1105C13.8542 22.4086 14.0358 22.6768 14.3126 22.7874L15.3336 23.1959C16.7244 23.7521 18.2758 23.7521 19.6666 23.1959L20.6876 22.7874C20.9644 22.6768 21.1459 22.4086 21.1459 22.1105V18.9583C21.1459 18.5556 20.8194 18.2291 20.4167 18.2291Z" fill="white"/>
<path d="M11.6824 22.4133L4.38354 20.2238C4.42743 24.7657 4.69276 28.9487 6.29697 30.3746C8.21906 32.0831 11.3127 32.0831 17.4999 32.0831C23.687 32.0831 26.7807 32.0831 28.7028 30.3746C30.3069 28.9487 30.5722 24.7657 30.6161 20.2238L23.3176 22.4133C23.2065 23.4818 22.5126 24.4135 21.4999 24.8185L20.4788 25.227C18.5666 25.9919 16.4334 25.9919 14.5211 25.227L13.5001 24.8185C12.4874 24.4135 11.7936 23.4818 11.6824 22.4133Z" fill="white"/>
<path d="M11.0964 7.29163H23.9038C27.4768 7.29163 29.2634 7.29163 30.4696 8.27305C30.7015 8.46169 30.9134 8.67357 31.102 8.9054C32.0834 10.1116 32.0834 11.8982 32.0834 15.4713C32.0834 16.3781 32.0834 16.8313 31.8635 17.185C31.8208 17.2538 31.7722 17.319 31.7185 17.3798C31.4431 17.692 31.0088 17.8224 30.1403 18.0829L23.3334 20.125V18.9583C23.3334 17.3474 22.0276 16.0416 20.4167 16.0416H14.5834C12.9726 16.0416 11.6667 17.3474 11.6667 18.9583V20.125L4.85983 18.0829C3.99139 17.8224 3.55718 17.692 3.28164 17.3798C3.22797 17.319 3.17947 17.2538 3.13664 17.185C2.91675 16.8313 2.91675 16.3781 2.91675 15.4713C2.91675 11.8982 2.91675 10.1116 3.89818 8.9054C4.08681 8.67359 4.29871 8.46169 4.53053 8.27305C5.73673 7.29163 7.52329 7.29163 11.0964 7.29163Z" fill="white"/>
</svg>
