<svg width="40" height="40" viewBox="0 0 40 40" fill="none" xmlns="http://www.w3.org/2000/svg">
<g clip-path="url(#clip0_45_1909)">
<path d="M20 0C8.9543 0 0 8.9543 0 20C0 31.0457 8.9543 40 20 40C31.0457 40 40 31.0456 40 20C40 8.95437 31.0457 0 20 0ZM34.6637 13.864L35.4699 16.3449L31.1007 17.7646L30.2945 15.2837L34.6637 13.864ZM18.6956 4.15781H21.3043V8.7518H18.6956V4.15781ZM18.6956 18.2113V11.2766H21.3043V18.2113C22.5798 18.7286 23.4822 19.9802 23.4822 21.4391C23.4822 23.3593 21.92 24.9214 19.9999 24.9214C18.0798 24.9214 16.5177 23.3592 16.5177 21.4391C16.5177 19.9801 17.4201 18.7285 18.6956 18.2113ZM5.33625 26.136L4.53008 23.6551L8.8993 22.2354L9.70547 24.7163L5.33625 26.136ZM8.8993 17.7646L4.53008 16.3449L5.33625 13.864L9.70547 15.2837L8.8993 17.7646ZM9.63297 7.95008L11.7435 6.41672L14.4438 10.1334L12.3332 11.6668L9.63297 7.95008ZM12.843 35.0874V26.7408H27.157V35.0874H12.843ZM25.5562 10.1334L28.2565 6.41664L30.367 7.95L27.6668 11.6667L25.5562 10.1334ZM34.6637 26.136L30.2945 24.7163L31.1007 22.2354L35.4699 23.6551L34.6637 26.136Z" fill="url(#paint0_linear_45_1909)"/>
<path d="M20.0001 20.5654C19.5183 20.5654 19.1265 20.9573 19.1265 21.439C19.1265 21.9207 19.5183 22.3127 20.0001 22.3127C20.4818 22.3127 20.8737 21.9207 20.8737 21.4391C20.8737 20.9575 20.4818 20.5654 20.0001 20.5654Z" fill="url(#paint1_linear_45_1909)"/>
</g>
<defs>
<linearGradient id="paint0_linear_45_1909" x1="-1.49012e-07" y1="20" x2="40" y2="20" gradientUnits="userSpaceOnUse">
<stop stop-color="#1A82B7"/>
<stop offset="1" stop-color="#0030AB"/>
</linearGradient>
<linearGradient id="paint1_linear_45_1909" x1="19.1265" y1="21.4391" x2="20.8737" y2="21.4391" gradientUnits="userSpaceOnUse">
<stop stop-color="#1A82B7"/>
<stop offset="1" stop-color="#0030AB"/>
</linearGradient>
<clipPath id="clip0_45_1909">
<rect width="40" height="40" fill="white"/>
</clipPath>
</defs>
</svg>
