<svg width="40" height="40" viewBox="0 0 40 40" fill="none" xmlns="http://www.w3.org/2000/svg">
<g clip-path="url(#clip0_45_1892)">
<path d="M34.1422 5.85781C30.3646 2.08031 25.3422 0 20 0C14.6578 0 9.63539 2.08031 5.85781 5.85781C2.08031 9.63539 0 14.6577 0 20C0 25.3423 2.08031 30.3646 5.85781 34.1422C9.63539 37.9197 14.6578 40 20 40C25.3422 40 30.3646 37.9197 34.1422 34.1422C37.9197 30.3646 40 25.3423 40 20C40 14.6577 37.9197 9.63539 34.1422 5.85781ZM21.3044 29.7052H18.6957V21.3044H11.8321V29.7052H9.22344V10.2948H11.8321V18.6956H18.6957V10.2948H21.3044V18.6956H28.168V10.2948H30.7767V21.3043H21.3044V29.7052ZM30.3356 29.3023L29.3724 27.747H28.8516V29.3023H27.4604V24.2368H29.7863C30.7779 24.2368 31.4914 25.1286 31.4914 25.992C31.4914 26.577 31.2203 27.1191 30.7637 27.4402L31.9052 29.3023H30.3356V29.3023Z" fill="url(#paint0_linear_45_1892)"/>
<path d="M29.6937 25.4497H28.8518V26.5342H29.7294C29.9007 26.5342 30.0791 26.3343 30.0791 25.992C30.0788 25.6423 29.8648 25.4497 29.6937 25.4497Z" fill="url(#paint1_linear_45_1892)"/>
</g>
<defs>
<linearGradient id="paint0_linear_45_1892" x1="-1.49012e-07" y1="20" x2="40" y2="20" gradientUnits="userSpaceOnUse">
<stop stop-color="#1A82B7"/>
<stop offset="1" stop-color="#0030AB"/>
</linearGradient>
<linearGradient id="paint1_linear_45_1892" x1="28.8518" y1="25.9919" x2="30.0791" y2="25.9919" gradientUnits="userSpaceOnUse">
<stop stop-color="#1A82B7"/>
<stop offset="1" stop-color="#0030AB"/>
</linearGradient>
<clipPath id="clip0_45_1892">
<rect width="40" height="40" fill="white"/>
</clipPath>
</defs>
</svg>
