<svg width="35" height="35" viewBox="0 0 35 35" fill="none" xmlns="http://www.w3.org/2000/svg">
<path d="M10.2083 7.04277C10.2083 9.29995 12.7252 11.6777 14.8016 13.2552C15.9671 14.1406 16.5497 14.5833 17.4999 14.5833C18.4502 14.5833 19.0329 14.1406 20.1983 13.2552C22.2746 11.6778 24.7916 9.3 24.7916 7.04276C24.7916 2.97376 20.781 1.45459 17.4999 4.59786C14.2188 1.45459 10.2083 2.97376 10.2083 7.04277Z" fill="white"/>
<path d="M9.12898 31.1914H8.74992C7.37499 31.1914 6.68753 31.1914 6.26038 30.7643C5.83325 30.3371 5.83325 29.6497 5.83325 28.2748V26.6531C5.83325 25.897 5.83325 25.519 6.02747 25.1813C6.22169 24.8436 6.51469 24.6733 7.10069 24.3325C10.9587 22.0885 16.4375 20.8255 20.0944 23.0065C20.34 23.1531 20.5611 23.33 20.7498 23.542C21.5637 24.4563 21.5045 25.836 20.5665 26.6547C20.3683 26.8275 20.1573 26.9588 19.9447 27.0043C20.1194 26.984 20.2868 26.9608 20.4466 26.9353C21.7758 26.7232 22.8914 26.013 23.9128 25.2414L26.5483 23.2507C27.4774 22.5488 28.8564 22.5486 29.7856 23.2502C30.6223 23.882 30.8781 24.9221 30.3491 25.7698C29.7324 26.7585 28.8634 28.0233 28.0289 28.7961C27.1933 29.5701 25.9494 30.261 24.9338 30.7512C23.8087 31.2942 22.5659 31.6071 21.3016 31.8118C18.7378 32.2267 16.0658 32.1634 13.5279 31.6406C12.0932 31.345 10.6032 31.1914 9.12898 31.1914Z" fill="white"/>
</svg>
