<svg width="26" height="20" viewBox="0 0 26 20" fill="none" xmlns="http://www.w3.org/2000/svg">
<path d="M14.2135 13.4337C13.8925 12.8601 13.5714 12.2878 13.248 11.7172C13.1741 11.7169 13.0979 11.7171 13.0182 11.7172L13.0019 11.7172C12.7863 11.7176 12.5453 11.7178 12.3004 11.7064M14.2135 13.4337L12.3469 10.7075M14.2135 13.4337C14.1329 13.4343 14.0524 13.435 13.972 13.4357C12.6318 13.4469 11.3231 13.4579 10.0016 13.3959C8.4013 13.3208 7.1895 12.5559 6.38186 11.133L6.38143 11.1322C5.67594 9.89178 5.00459 8.64068 4.32625 7.37658C4.25821 7.24978 4.1901 7.12285 4.12188 6.99579M14.2135 13.4337L4.12188 6.99579M12.3004 11.7064L12.3469 10.7075M12.3004 11.7064C12.3005 11.7064 12.3007 11.7064 12.3008 11.7064L12.3469 10.7075M12.3004 11.7064C11.6719 11.6774 11.0717 11.517 10.5417 11.1799C10.0097 10.8415 9.60375 10.3603 9.31249 9.7758L9.31055 9.77191L9.31056 9.77191C9.01547 9.17327 8.72131 8.59817 8.42338 8.01569C8.25116 7.67899 8.07768 7.33984 7.90204 6.99225M12.3469 10.7075C11.3725 10.6626 10.6518 10.2213 10.2075 9.32978C9.91275 8.7318 9.60961 8.13898 9.30647 7.54615C9.07911 7.10153 8.85175 6.6569 8.62792 6.2101M7.90204 6.99225C8.02567 6.99199 8.1493 6.99171 8.27294 6.99142L8.27149 6.3894L8.62792 6.2101M7.90204 6.99225C6.64163 6.99489 5.38156 6.9956 4.12188 6.99579M7.90204 6.99225C7.8462 6.88175 7.79014 6.77039 7.73383 6.65799L8.27054 6.38913V5.99142M8.62792 6.2101L8.27149 6.38865M8.62792 6.2101C8.54647 6.04819 8.45269 5.99142 8.27054 5.99142M8.27149 6.38865L5.51219 11.6266C4.80036 10.375 4.11961 9.10643 3.43861 7.83737C3.28807 7.55683 3.13751 7.27627 2.98661 6.99586C3.36499 6.99586 3.74342 6.99585 4.12188 6.99579M8.27149 6.38865L8.27054 5.99142M8.27149 6.38865L4.12188 6.99579M8.27054 5.99142C6.70802 5.99517 5.14585 5.99575 3.58344 5.99585C3.76418 6.3301 3.94341 6.6634 4.12188 6.99579M7.73459 6.65949L8.27054 6.38988V6.99142H8.27043C8.26371 6.99143 8.12639 6.99152 7.96591 6.89355C7.80286 6.79401 7.73924 6.66874 7.73459 6.65949Z" fill="url(#paint0_linear_12_2458)" stroke="#CCCCCC" stroke-width="2"/>
<path d="M18.3052 6.96773C18.6198 7.53686 18.9367 8.10507 19.2533 8.67186C17.8989 8.67192 16.5438 8.67231 15.1877 8.67505C14.8653 8.10454 14.5402 7.53526 14.2155 6.96773H14.2191H14.2306H14.2421H14.2536H14.2651H14.2767H14.2882H14.2997H14.3112H14.3227H14.3342H14.3458H14.3573H14.3688H14.3803H14.3918H14.4033H14.4149H14.4264H14.4379H14.4494H14.4609H14.4724H14.484H14.4955H14.507H14.5185H14.53H14.5415H14.5531H14.5646H14.5761H14.5876H14.5991H14.6107H14.6222H14.6337H14.6452H14.6567H14.6682H14.6798H14.6913H14.7028H14.7143H14.7258H14.7373H14.7489H14.7604H14.7719H14.7834H14.7949H14.8064H14.818H14.8295H14.841H14.8525H14.864H14.8755H14.8871H14.8986H14.9101H14.9216H14.9331H14.9447H14.9562H14.9677H14.9792H14.9907H15.0022H15.0138H15.0253H15.0368H15.0483H15.0598H15.0713H15.0829H15.0944H15.1059H15.1174H15.1289H15.1404H15.152H15.1635H15.175H15.1865H15.198H15.2095H15.2211H15.2326H15.2441H15.2556H15.2671H15.2786H15.2902H15.3017H15.3132H15.3247H15.3362H15.3478H15.3593H15.3708H15.3823H15.3938H15.4053H15.4169H15.4284H15.4399H15.4514H15.4629H15.4744H15.486H15.4975H15.509H15.5205H15.532H15.5435H15.5551H15.5666H15.5781H15.5896H15.6011H15.6126H15.6242H15.6357H15.6472H15.6587H15.6702H15.6817H15.6933H15.7048H15.7163H15.7278H15.7393H15.7509H15.7624H15.7739H15.7854H15.7969H15.8084H15.82H15.8315H15.843H15.8545H15.866H15.8775H15.8891H15.9006H15.9121H15.9236H15.9351H15.9466H15.9582H15.9697H15.9812H15.9927H16.0042H16.0157H16.0273H16.0388H16.0503H16.0618H16.0733H16.0849H16.0964H16.1079H16.1194H16.1309H16.1424H16.154H16.1655H16.177H16.1885H16.2H16.2115H16.2231H16.2346H16.2461H16.2576H16.2691H16.2806H16.2922H16.3037H16.3152H16.3267H16.3382H16.3497H16.3613H16.3728H16.3843H16.3958H16.4073H16.4188H16.4304H16.4419H16.4534H16.4649H16.4764H16.488H16.4995H16.511H16.5225H16.534H16.5455H16.5571H16.5686H16.5801H16.5916H16.6031H16.6146H16.6262H16.6377H16.6492H16.6607H16.6722H16.6837H16.6953H16.7068H16.7183H16.7298H16.7413H16.7528H16.7644H16.7759H16.7874H16.7989H16.8104H16.8219H16.8335H16.845H16.8565H16.868H16.8795H16.8911H16.9026H16.9141H16.9256H16.9371H16.9486H16.9602H16.9717H16.9832H16.9947H17.0062H17.0177H17.0293H17.0408H17.0523H17.0638H17.0753H17.0868H17.0984H17.1099H17.1214H17.1329H17.1444H17.1559H17.1675H17.179H17.1905H17.202H17.2135H17.2251H17.2366H17.2481H17.2596H17.2711H17.2826H17.2942H17.3057H17.3172H17.3287H17.3402H17.3517H17.3633H17.3748H17.3863H17.3978H17.4093H17.4208H17.4324H17.4439H17.4554H17.4669H17.4784H17.4899H17.5015H17.513H17.5245H17.536H17.5475H17.559H17.5706H17.5821H17.5936H17.6051H17.6166H17.6282H17.6397H17.6512H17.6627H17.6742H17.6857H17.6973H17.7088H17.7203H17.7318H17.7433H17.7548H17.7664H17.7779H17.7894H17.8009H17.8124H17.8239H17.8355H17.847H17.8585H17.87H17.8815H17.893H17.9046H17.9161H17.9276H17.9391H17.9506H17.9622H17.9737H17.9852H17.9967H18.0082H18.0197H18.0313H18.0428H18.0543H18.0658H18.0773H18.0888H18.1004H18.1119H18.1234H18.1349H18.1464H18.1579H18.1695H18.181H18.1925H18.204H18.2155H18.227H18.2386H18.2501H18.2616H18.2731H18.2846H18.2961H18.3052Z" fill="url(#paint1_linear_12_2458)" stroke="#CCCCCC" stroke-width="2"/>
<path d="M17.8345 13.4317C17.5121 12.8592 17.1862 12.288 16.8607 11.7188H17.0252C17.2892 11.7188 17.553 11.7187 17.8165 11.7187C18.8576 11.7183 19.8958 11.718 20.9339 11.7229C21.2577 12.2893 21.5786 12.8577 21.8992 13.4281C20.5448 13.4276 19.19 13.4273 17.8345 13.4317ZM21.2901 10.7248C21.3927 10.7248 21.5453 10.779 21.5902 10.857L16.2886 10.7188H17.0252C17.2885 10.7188 17.5517 10.7187 17.815 10.7187C18.9734 10.7183 20.1317 10.7179 21.2901 10.7248Z" fill="url(#paint2_linear_12_2458)" stroke="#CCCCCC" stroke-width="2"/>
<defs>
<linearGradient id="paint0_linear_12_2458" x1="2.46753" y1="5.99142" x2="9.89932" y2="18.3397" gradientUnits="userSpaceOnUse">
<stop stop-color="#F2F2F2"/>
<stop offset="0.255208" stop-color="#D3D3D3"/>
<stop offset="0.505208" stop-color="#CECDC9"/>
<stop offset="0.744792" stop-color="#848484"/>
<stop offset="1" stop-color="#363636"/>
</linearGradient>
<linearGradient id="paint1_linear_12_2458" x1="12.5122" y1="5.96767" x2="15.1468" y2="12.2402" gradientUnits="userSpaceOnUse">
<stop stop-color="#F2F2F2"/>
<stop offset="0.255208" stop-color="#D3D3D3"/>
<stop offset="0.505208" stop-color="#CECDC9"/>
<stop offset="0.744792" stop-color="#848484"/>
<stop offset="1" stop-color="#363636"/>
</linearGradient>
<linearGradient id="paint2_linear_12_2458" x1="15.1494" y1="10.7185" x2="17.7916" y2="16.9982" gradientUnits="userSpaceOnUse">
<stop stop-color="#F2F2F2"/>
<stop offset="0.255208" stop-color="#D3D3D3"/>
<stop offset="0.505208" stop-color="#CECDC9"/>
<stop offset="0.744792" stop-color="#848484"/>
<stop offset="1" stop-color="#363636"/>
</linearGradient>
</defs>
</svg>
