<svg width="35" height="35" viewBox="0 0 35 35" fill="none" xmlns="http://www.w3.org/2000/svg">
<path d="M14.6381 7.75254L15.5845 9.44848C16.4387 10.979 16.0958 12.9867 14.7505 14.332C14.7505 14.332 13.1189 15.9639 16.0773 18.9224C19.0348 21.8799 20.6677 20.2492 20.6677 20.2492C22.013 18.9039 24.0207 18.561 25.5512 19.4152L27.2471 20.3616C29.5583 21.6514 29.8311 24.8924 27.7998 26.9238C26.5792 28.1445 25.0838 29.0943 23.4308 29.1568C20.6482 29.2624 15.9224 28.5582 11.182 23.8177C6.44157 19.0773 5.73731 14.3516 5.84281 11.5689C5.90547 9.91588 6.85525 8.42055 8.07589 7.19992C10.1073 5.16854 13.3483 5.44148 14.6381 7.75254Z" fill="white"/>
<path d="M19.3368 2.74114C19.4334 2.14484 19.997 1.74034 20.5933 1.83687C20.6302 1.84394 20.7491 1.86614 20.8112 1.87999C20.9357 1.90771 21.1093 1.95037 21.3257 2.01341C21.7585 2.13947 22.3632 2.34715 23.0888 2.67984C24.5418 3.34595 26.4752 4.51116 28.4816 6.51754C30.488 8.52391 31.6532 10.4574 32.3192 11.9103C32.652 12.636 32.8597 13.2406 32.9857 13.6734C33.0487 13.8898 33.0914 14.0634 33.1191 14.1879C33.133 14.2501 33.1432 14.3 33.1502 14.337L33.1586 14.3825C33.255 14.9787 32.8543 15.5658 32.258 15.6624C31.6634 15.7586 31.1032 15.356 31.0044 14.7626C31.0013 14.7465 30.9929 14.7038 30.984 14.6634C30.9659 14.5826 30.9348 14.4545 30.8855 14.2851C30.7868 13.9463 30.6154 13.4427 30.3308 12.8219C29.7623 11.5819 28.74 9.86956 26.9347 8.06433C25.1296 6.25912 23.4172 5.23684 22.1772 4.66834C21.5564 4.38373 21.0529 4.21233 20.7139 4.11363C20.5446 4.0643 20.3317 4.01543 20.2509 3.99745C19.6574 3.89853 19.2406 3.33573 19.3368 2.74114Z" fill="white"/>
<path fill-rule="evenodd" clip-rule="evenodd" d="M19.6666 7.77159C19.8326 7.19077 20.4379 6.85445 21.0188 7.02039L20.7184 8.07207C21.0188 7.02039 21.0188 7.02039 21.0188 7.02039L21.021 7.021L21.0232 7.02164L21.028 7.02306L21.0393 7.02644L21.0682 7.03543C21.0901 7.04245 21.1177 7.05161 21.1503 7.06324C21.2158 7.08648 21.3024 7.11953 21.4086 7.16503C21.6211 7.25609 21.9113 7.3967 22.268 7.60773C22.9817 8.03018 23.9562 8.7319 25.1009 9.87665C26.2457 11.0214 26.9473 11.9958 27.3698 12.7097C27.5808 13.0662 27.7214 13.3565 27.8126 13.569C27.8581 13.6752 27.8912 13.7617 27.9144 13.8272C27.926 13.86 27.9351 13.8874 27.9422 13.9094L27.9511 13.9383L27.9545 13.9496L27.9559 13.9544L27.9565 13.9567C27.9565 13.9567 27.9572 13.9588 26.9055 14.2592L27.9572 13.9588C28.1232 14.5396 27.7868 15.1449 27.206 15.3109C26.6302 15.4754 26.03 15.1462 25.8581 14.5745L25.8527 14.5587C25.845 14.5368 25.8289 14.4937 25.802 14.4307C25.748 14.3048 25.6502 14.0988 25.4874 13.8238C25.1622 13.2744 24.5749 12.4442 23.5541 11.4234C22.5334 10.4027 21.7032 9.81542 21.1538 9.49025C20.8788 9.32747 20.6729 9.22962 20.5469 9.17566C20.4839 9.14867 20.4407 9.13257 20.4188 9.12479L20.4031 9.11941C19.8314 8.9475 19.5021 8.34747 19.6666 7.77159Z" fill="white"/>
</svg>
