<svg width="35" height="35" viewBox="0 0 35 35" fill="none" xmlns="http://www.w3.org/2000/svg">
<path d="M27.1771 22.8522L29.6802 15.3428C31.867 8.78265 32.9603 5.50257 31.2288 3.77113C29.4975 2.03971 26.2174 3.13307 19.6573 5.31978L12.1478 7.82292C6.85313 9.58781 4.2058 10.4703 3.45351 11.7643C2.73783 12.9953 2.73783 14.5158 3.45351 15.7467C4.2058 17.0409 6.85313 17.9233 12.1478 19.6882C12.804 19.9069 13.5422 19.7507 14.0335 19.264L22.0626 11.3093C22.5143 10.8617 23.2433 10.8651 23.6907 11.3168C24.1383 11.7685 24.1349 12.4975 23.6831 12.945L15.7838 20.7713C15.2423 21.3078 15.0708 22.129 15.3119 22.8522C17.0767 28.1468 17.9592 30.7943 19.2533 31.5465C20.4843 32.2622 22.0047 32.2622 23.2357 31.5465C24.5298 30.7943 25.4123 28.147 27.1771 22.8522Z" fill="white"/>
</svg>
