<svg width="40" height="40" viewBox="0 0 40 40" fill="none" xmlns="http://www.w3.org/2000/svg">
<g clip-path="url(#clip0_45_1920)">
<path d="M34.1422 5.85781C30.3646 2.08031 25.3423 0 20 0C14.6577 0 9.63539 2.08031 5.85781 5.85781C2.08031 9.63539 0 14.6578 0 20C0 25.3422 2.08031 30.3646 5.85781 34.1422C9.63539 37.9197 14.6577 40 20 40C25.3423 40 30.3646 37.9197 34.1422 34.1422C37.9197 30.3646 40 25.3422 40 20C40 14.6578 37.9197 9.63539 34.1422 5.85781ZM20 6.1932C24.6338 6.1932 28.7416 8.48781 31.2471 12.0003L24.4941 15.8992C23.3802 14.6795 21.778 13.913 20 13.913C18.222 13.913 16.6198 14.6795 15.5059 15.8992L8.75289 12.0003C11.2584 8.48781 15.3663 6.1932 20 6.1932ZM18.6956 33.7448C11.692 33.0854 6.1932 27.1732 6.1932 20C6.1932 17.9521 6.64195 16.0072 7.44539 14.2577L14.1991 18.157C14.0138 18.7387 13.913 19.3577 13.913 20C13.913 22.9086 15.9641 25.3459 18.6956 25.9448V33.7448ZM16.5217 20C16.5217 18.0821 18.082 16.5217 20 16.5217C21.9179 16.5217 23.4783 18.082 23.4783 20C23.4783 21.9179 21.918 23.4783 20 23.4783C18.0821 23.4783 16.5217 21.9179 16.5217 20ZM21.3044 33.7448V25.9448C24.0359 25.3459 26.087 22.9086 26.087 20C26.087 19.3577 25.9863 18.7387 25.8009 18.157L32.5546 14.2577C33.358 16.0073 33.8068 17.9522 33.8068 20C33.8068 27.1732 28.308 33.0854 21.3044 33.7448Z" fill="url(#paint0_linear_45_1920)"/>
</g>
<defs>
<linearGradient id="paint0_linear_45_1920" x1="-1.49012e-07" y1="20" x2="40" y2="20" gradientUnits="userSpaceOnUse">
<stop stop-color="#1A82B7"/>
<stop offset="1" stop-color="#0030AB"/>
</linearGradient>
<clipPath id="clip0_45_1920">
<rect width="40" height="40" fill="white"/>
</clipPath>
</defs>
</svg>
