<svg width="20" height="20" viewBox="0 0 20 20" fill="none" xmlns="http://www.w3.org/2000/svg">
<path d="M6.45616 4.53768L7.1322 5.74907C7.74231 6.84228 7.49741 8.27638 6.53647 9.2373C6.53647 9.2373 5.37104 10.4029 7.48418 12.5162C9.59668 14.6287 10.763 13.4639 10.763 13.4639C11.724 12.5029 13.158 12.258 14.2513 12.8681L15.4626 13.5442C17.1135 14.4654 17.3083 16.7804 15.8574 18.2315C14.9855 19.1033 13.9174 19.7818 12.7367 19.8265C10.7491 19.9019 7.37356 19.3989 3.98751 16.0128C0.601505 12.6268 0.0984631 9.25128 0.173817 7.26364C0.218578 6.08292 0.896994 5.01483 1.76888 4.14295C3.21987 2.69196 5.53488 2.88692 6.45616 4.53768Z" fill="white"/>
<path d="M9.81213 0.958154C9.88109 0.532227 10.2837 0.2433 10.7096 0.312248C10.736 0.3173 10.8209 0.333154 10.8653 0.34305C10.9542 0.362852 11.0782 0.393321 11.2328 0.438352C11.5419 0.528393 11.9738 0.676737 12.4921 0.914373C13.5299 1.39016 14.911 2.22246 16.3441 3.65558C17.7772 5.08871 18.6095 6.46976 19.0853 7.50755C19.323 8.0259 19.4713 8.45778 19.5613 8.76692C19.6063 8.92152 19.6368 9.04551 19.6566 9.13438C19.6665 9.17883 19.6738 9.21452 19.6788 9.24088L19.6848 9.27338C19.7537 9.69927 19.4674 10.1186 19.0415 10.1876C18.6168 10.2564 18.2167 9.96875 18.1461 9.54489C18.1439 9.53343 18.1379 9.50291 18.1315 9.47406C18.1186 9.41635 18.0964 9.32487 18.0612 9.20387C17.9907 8.96186 17.8683 8.60214 17.6649 8.15873C17.2589 7.27299 16.5287 6.04988 15.2392 4.76044C13.9498 3.471 12.7267 2.7408 11.841 2.33473C11.3975 2.13144 11.0379 2.00901 10.7958 1.93851C10.6748 1.90327 10.5228 1.86836 10.465 1.85552C10.0411 1.78486 9.74338 1.38286 9.81213 0.958154Z" fill="white"/>
<path fill-rule="evenodd" clip-rule="evenodd" d="M10.0478 4.55136C10.1664 4.13648 10.5988 3.89626 11.0137 4.01479L10.7991 4.76598C11.0137 4.01479 11.0137 4.01479 11.0137 4.01479L11.0152 4.01522L11.0168 4.01568L11.0202 4.01669L11.0283 4.01911L11.049 4.02553C11.0646 4.03055 11.0843 4.03709 11.1076 4.04539C11.1544 4.062 11.2163 4.0856 11.2921 4.1181C11.4439 4.18314 11.6512 4.28358 11.9059 4.43432C12.4157 4.73607 13.1118 5.2373 13.9295 6.05497C14.7472 6.87266 15.2483 7.56868 15.5501 8.07855C15.7008 8.33324 15.8013 8.5406 15.8664 8.69236C15.8989 8.76819 15.9225 8.83003 15.9391 8.87681C15.9474 8.90019 15.9539 8.91981 15.959 8.93552L15.9653 8.95613L15.9677 8.9642L15.9688 8.96767L15.9692 8.96928C15.9692 8.96928 15.9697 8.97078 15.2184 9.1854L15.9697 8.97078C16.0882 9.38564 15.8479 9.81803 15.4331 9.93657C15.0218 10.0541 14.5931 9.81896 14.4703 9.41056L14.4665 9.39933C14.4609 9.38367 14.4495 9.35286 14.4302 9.30786C14.3917 9.21792 14.3218 9.07081 14.2055 8.87436C13.9732 8.48192 13.5538 7.88895 12.8246 7.15983C12.0955 6.43071 11.5025 6.01123 11.1101 5.77897C10.9137 5.6627 10.7666 5.59281 10.6766 5.55427C10.6316 5.53498 10.6007 5.52348 10.5851 5.51793L10.5739 5.51409C10.1655 5.3913 9.93032 4.9627 10.0478 4.55136Z" fill="white"/>
</svg>
