<svg width="50" height="50" viewBox="0 0 50 50" fill="none" xmlns="http://www.w3.org/2000/svg">
<g clip-path="url(#clip0_142_4596)">
<path d="M44.636 0H5.36398C2.40154 0 0 2.40154 0 5.36398V44.636C0 47.5985 2.40154 50 5.36398 50H44.636C47.5985 50 50 47.5985 50 44.636V5.36398C50 2.40154 47.5985 0 44.636 0Z" fill="url(#paint0_linear_142_4596)"/>
<path fill-rule="evenodd" clip-rule="evenodd" d="M34.4437 18.1164C34.6693 17.6651 35.1206 17.6651 35.1206 16.9882C34.218 16.9882 33.5411 17.6651 33.0899 17.8907L17.9724 27.3673L20.9057 36.6183C21.3569 36.1671 21.3569 35.7158 21.3569 34.8133C21.3569 34.362 21.5826 33.4595 21.5826 33.0082V31.4288C21.8082 31.2031 21.8082 30.9775 21.8082 30.5262C21.8082 30.3006 21.8082 30.075 21.8082 29.8493C22.0338 29.398 22.2595 29.6237 22.4851 29.1724C25.8696 25.5623 30.6079 21.5009 34.4437 18.1164Z" fill="#CCD8E6"/>
<path fill-rule="evenodd" clip-rule="evenodd" d="M10.5265 24.6595L17.9724 27.3671L33.7668 17.4392C34.218 17.2135 34.6693 16.9879 35.1206 16.9879C35.1206 17.6648 34.218 18.3417 33.7668 18.793C30.3823 21.7262 24.7414 26.0133 21.8082 29.3978L24.5158 31.4285C24.967 31.4285 26.0952 32.5566 26.3208 32.7823C26.7721 33.0079 28.5772 34.3617 28.8028 34.813C29.2541 34.813 29.2541 35.0386 29.4797 35.2642L31.7361 36.8437C32.6386 37.5206 33.5411 38.6488 35.1206 37.5206L40.0845 14.9572C40.7614 11.1214 38.9563 11.7983 36.4744 12.7009L11.2034 22.8544C10.3008 23.3057 9.39831 24.4338 10.5265 24.6595Z" fill="#FEFEFE"/>
<path fill-rule="evenodd" clip-rule="evenodd" d="M20.9055 36.6192L21.1312 36.8448C21.5824 36.8448 22.0337 36.6192 22.485 36.1679L26.3207 32.7834C26.0951 32.5578 24.9669 31.4296 24.5157 31.4296L21.8081 29.3989L20.9055 36.6192Z" fill="#ABBDD5"/>
</g>
<defs>
<linearGradient id="paint0_linear_142_4596" x1="-0.0157701" y1="-0.473083" x2="49.5815" y2="50.2776" gradientUnits="userSpaceOnUse">
<stop stop-color="#20A0E1"/>
<stop offset="1" stop-color="#006EA6"/>
</linearGradient>
<clipPath id="clip0_142_4596">
<rect width="50" height="50" fill="white"/>
</clipPath>
</defs>
</svg>
