<svg width="35" height="35" viewBox="0 0 35 35" fill="none" xmlns="http://www.w3.org/2000/svg">
<path d="M17.5001 14.583C20.7217 14.583 23.3334 11.9714 23.3334 8.74971C23.3334 5.52805 20.7217 2.91638 17.5001 2.91638C14.2784 2.91638 11.6667 5.52805 11.6667 8.74971C11.6667 11.9714 14.2784 14.583 17.5001 14.583Z" fill="white"/>
<path d="M3.97809 8.48437C3.83159 7.89835 3.23776 7.54204 2.65174 7.68856C2.06571 7.83506 1.70941 8.4289 1.85591 9.01493L2.41295 11.2431C3.44073 15.3541 6.55681 18.5928 10.5733 19.802V26.3254C10.5732 27.6357 10.5732 28.7283 10.6898 29.5957C10.8129 30.5113 11.0836 31.3379 11.7479 32.0021C12.4121 32.6663 13.2387 32.9371 14.1542 33.0602C15.0216 33.1768 16.1142 33.1768 17.4245 33.1767H17.5762C18.8865 33.1768 19.9791 33.1768 20.8465 33.0602C21.7621 32.9371 22.5885 32.6663 23.2528 32.0021C23.917 31.3379 24.1879 30.5113 24.3109 29.5957C24.4275 28.7283 24.4275 27.6357 24.4275 26.3256V20.2108C25.8582 20.6372 26.9512 21.8804 27.1335 23.4308L28.0807 31.4817C28.1513 32.0815 28.6948 32.5107 29.2948 32.4401C29.8947 32.3695 30.3238 31.826 30.2532 31.226L29.3062 23.1753C28.9497 20.1466 26.3831 17.8642 23.3337 17.8642H11.7903C8.2269 17.0278 5.42445 14.2698 4.53513 10.7125L3.97809 8.48437Z" fill="white"/>
</svg>
