<svg width="50" height="50" viewBox="0 0 50 50" fill="none" xmlns="http://www.w3.org/2000/svg">
<g clip-path="url(#clip0_142_4604)">
<path d="M44.636 0H5.36398C2.40154 0 0 2.40154 0 5.36398V44.636C0 47.5985 2.40154 50 5.36398 50H44.636C47.5985 50 50 47.5985 50 44.636V5.36398C50 2.40154 47.5985 0 44.636 0Z" fill="url(#paint0_linear_142_4604)"/>
</g>
<path d="M30.75 27.5C30.5 27.375 28.875 26.625 28.625 26.5C28.375 26.375 28.125 26.375 27.875 26.625C27.625 26.875 27.125 27.625 26.875 27.875C26.75 28.125 26.5 28.125 26.25 28C25.375 27.625 24.5 27.125 23.75 26.5C23.125 25.875 22.5 25.125 22 24.375C21.875 24.125 22 23.875 22.125 23.75C22.25 23.625 22.375 23.375 22.625 23.25C22.75 23.125 22.875 22.875 22.875 22.75C23 22.625 23 22.375 22.875 22.25C22.75 22.125 22.125 20.625 21.875 20C21.75 19.125 21.5 19.125 21.25 19.125C21.125 19.125 20.875 19.125 20.625 19.125C20.375 19.125 20 19.375 19.875 19.5C19.125 20.25 18.75 21.125 18.75 22.125C18.875 23.25 19.25 24.375 20 25.375C21.375 27.375 23.125 29 25.25 30C25.875 30.25 26.375 30.5 27 30.625C27.625 30.875 28.25 30.875 29 30.75C29.875 30.625 30.625 30 31.125 29.25C31.375 28.75 31.375 28.25 31.25 27.75C31.25 27.75 31 27.625 30.75 27.5ZM33.875 16.125C29 11.25 21.125 11.25 16.25 16.125C12.25 20.125 11.5 26.25 14.25 31.125L12.5 37.5L19.125 35.75C21 36.75 23 37.25 25 37.25C31.875 37.25 37.375 31.75 37.375 24.875C37.5 21.625 36.125 18.5 33.875 16.125ZM30.5 33.625C28.875 34.625 27 35.25 25 35.25C23.125 35.25 21.375 34.75 19.75 33.875L19.375 33.625L15.5 34.625L16.5 30.875L16.25 30.5C13.25 25.5 14.75 19.25 19.625 16.125C24.5 13 30.75 14.625 33.75 19.375C36.75 24.25 35.375 30.625 30.5 33.625Z" fill="white"/>
<defs>
<linearGradient id="paint0_linear_142_4604" x1="0" y1="0" x2="49.5972" y2="49.5972" gradientUnits="userSpaceOnUse">
<stop stop-color="#64FF54"/>
<stop offset="1" stop-color="#00DD89"/>
</linearGradient>
<clipPath id="clip0_142_4604">
<rect width="50" height="50" fill="white"/>
</clipPath>
</defs>
</svg>
