<svg width="50" height="50" viewBox="0 0 50 50" fill="none" xmlns="http://www.w3.org/2000/svg">
<g clip-path="url(#clip0_142_4611)">
<path d="M44.636 0H5.36398C2.40154 0 0 2.40154 0 5.36398V44.636C0 47.5985 2.40154 50 5.36398 50H44.636C47.5985 50 50 47.5985 50 44.636V5.36398C50 2.40154 47.5985 0 44.636 0Z" fill="#FF0000"/>
<g clip-path="url(#clip1_142_4611)">
<path fill-rule="evenodd" clip-rule="evenodd" d="M21.8826 28.5272V20.4362C24.7549 21.7878 26.9795 23.0934 29.6105 24.5011C27.4405 25.7045 24.7549 27.0549 21.8826 28.5272ZM37.89 16.4122C37.3945 15.7594 36.5501 15.2513 35.6511 15.083C33.0085 14.5812 16.5228 14.5798 13.8817 15.083C13.1608 15.2182 12.5188 15.5449 11.9673 16.0524C9.64358 18.2092 10.3717 29.7752 10.9318 31.6487C11.1674 32.4597 11.4718 33.0445 11.8553 33.4284C12.3493 33.936 13.0257 34.2854 13.8027 34.4422C15.9785 34.8922 27.1877 35.1439 35.6051 34.5098C36.3806 34.3746 37.0671 34.0139 37.6085 33.4847C39.757 31.3366 39.6105 19.1211 37.89 16.4122Z" fill="white"/>
</g>
</g>
<defs>
<clipPath id="clip0_142_4611">
<rect width="50" height="50" fill="white"/>
</clipPath>
<clipPath id="clip1_142_4611">
<rect width="28.8356" height="28.8356" fill="white" transform="translate(10.365 10.3808)"/>
</clipPath>
</defs>
</svg>
