<svg width="45" height="35" viewBox="0 0 45 35" fill="none" xmlns="http://www.w3.org/2000/svg">
<path d="M10.8665 5.40109L11.8658 5.4004L18.2927 5.39602L19.2934 5.39534V6.39602V6.69388C19.2934 7.15931 19.2933 7.62458 19.2932 8.08975C19.2928 10.0422 19.2923 11.9926 19.2995 13.9432C21.262 15.929 23.2298 17.9099 25.2028 19.8858C25.3684 20.0414 25.4992 20.23 25.5871 20.4392L24.6652 20.8266L25.5871 20.4392C25.6763 20.6515 25.7193 20.8802 25.7134 21.1101C25.707 22.8053 25.7075 24.5002 25.7079 26.1975C25.7081 26.6411 25.7082 27.085 25.7082 27.5291V27.9072V28.9072H24.7082H24.4665H24.4657C20.3435 28.904 16.2215 28.9062 12.0997 28.914L10.8665 5.40109ZM10.8665 5.40109V6.4004M10.8665 5.40109V6.4004M10.8665 6.4004V6.7187M10.8665 6.4004V6.7187M10.8665 6.7187V6.72952M10.8665 6.7187V6.72952M10.8665 6.72952V6.74033M10.8665 6.72952V6.74033M10.8665 6.74033V6.75115M10.8665 6.74033V6.75115M10.8665 6.75115V6.76196M10.8665 6.75115V6.76196M10.8665 6.76196V6.77277M10.8665 6.76196V6.77277M10.8665 6.77277V6.78359M10.8665 6.77277V6.78359M10.8665 6.78359V6.7944M10.8665 6.78359V6.7944M10.8665 6.7944V6.80522M10.8665 6.7944V6.80522M10.8665 6.80522V6.81603M10.8665 6.80522V6.81603M10.8665 6.81603V6.82684M10.8665 6.81603V6.82684M10.8665 6.82684V6.83766M10.8665 6.82684V6.83766M10.8665 6.83766V6.84847M10.8665 6.83766V6.84847M10.8665 6.84847V6.85929M10.8665 6.84847V6.85929M10.8665 6.85929V6.8701M10.8665 6.85929V6.8701M10.8665 6.8701V6.88091M10.8665 6.8701V6.88091M10.8665 6.88091V6.89173M10.8665 6.88091V6.89173M10.8665 6.89173V6.90254M10.8665 6.89173V6.90254M10.8665 6.90254V6.91336M10.8665 6.90254V6.91336M10.8665 6.91336V6.92417M10.8665 6.91336V6.92417M10.8665 6.92417V6.93498M10.8665 6.92417V6.93498M10.8665 6.93498V6.9458M10.8665 6.93498V6.9458M10.8665 6.9458V6.95661M10.8665 6.9458V6.95661M10.8665 6.95661V6.96743M10.8665 6.95661V6.96743M10.8665 6.96743V6.97824M10.8665 6.96743V6.97824M10.8665 6.97824V6.98905M10.8665 6.97824V6.98905M10.8665 6.98905V6.99987M10.8665 6.98905V6.99987M10.8665 6.99987V7.01068M10.8665 6.99987V7.01068M10.8665 7.01068V7.0215M10.8665 7.01068V7.0215M10.8665 7.0215V7.03231M10.8665 7.0215V7.03231M10.8665 7.03231V7.04312M10.8665 7.03231V7.04312M10.8665 7.04312V7.05394M10.8665 7.04312V7.05394M10.8665 7.05394V7.06475M10.8665 7.05394V7.06475M10.8665 7.06475V7.07557M10.8665 7.06475V7.07557M10.8665 7.07557V7.08638M10.8665 7.07557V7.08638M10.8665 7.08638V7.09719M10.8665 7.08638V7.09719M10.8665 7.09719V7.10801M10.8665 7.09719V7.10801M10.8665 7.10801V7.11882M10.8665 7.10801V7.11882M10.8665 7.11882V7.12964M10.8665 7.11882V7.12964M10.8665 7.12964V7.14045M10.8665 7.12964V7.14045M10.8665 7.14045V7.15126M10.8665 7.14045V7.15126M10.8665 7.15126V7.16208M10.8665 7.15126V7.16208M10.8665 7.16208V7.17289M10.8665 7.16208V7.17289M10.8665 7.17289V7.18371M10.8665 7.17289V7.18371M10.8665 7.18371V7.19452M10.8665 7.18371V7.19452M10.8665 7.19452V7.20533M10.8665 7.19452V7.20533M10.8665 7.20533V7.21615M10.8665 7.20533V7.21615M10.8665 7.21615V7.22696M10.8665 7.21615V7.22696M10.8665 7.22696V7.23778M10.8665 7.22696V7.23778M10.8665 7.23778V7.24859M10.8665 7.23778V7.24859M10.8665 7.24859V7.2594M10.8665 7.24859V7.2594M10.8665 7.2594V7.27022M10.8665 7.2594V7.27022M10.8665 7.27022V7.28103M10.8665 7.27022V7.28103M10.8665 7.28103V7.29185M10.8665 7.28103V7.29185M10.8665 7.29185V7.30266M10.8665 7.29185V7.30266M10.8665 7.30266V7.31347M10.8665 7.30266V7.31347M10.8665 7.31347V7.32429M10.8665 7.31347V7.32429M10.8665 7.32429V7.3351M10.8665 7.32429V7.3351M10.8665 7.3351V7.34592M10.8665 7.3351V7.34592M10.8665 7.34592V7.35673M10.8665 7.34592V7.35673M10.8665 7.35673V7.36754M10.8665 7.35673V7.36754M10.8665 7.36754V7.37836M10.8665 7.36754V7.37836M10.8665 7.37836V7.38917M10.8665 7.37836V7.38917M10.8665 7.38917V7.39999M10.8665 7.38917V7.39999M10.8665 7.39999V7.4108M10.8665 7.39999V7.4108M10.8665 7.4108V7.42162M10.8665 7.4108V7.42162M10.8665 7.42162V7.43243M10.8665 7.42162V7.43243M10.8665 7.43243V7.44324M10.8665 7.43243V7.44324M10.8665 7.44324V7.45406M10.8665 7.44324V7.45406M10.8665 7.45406V7.46487M10.8665 7.45406V7.46487M10.8665 7.46487V7.47569M10.8665 7.46487V7.47569M10.8665 7.47569V7.4865M10.8665 7.47569V7.4865M10.8665 7.4865V7.49731M10.8665 7.4865V7.49731M10.8665 7.49731V7.50813M10.8665 7.49731V7.50813M10.8665 7.50813V7.51894M10.8665 7.50813V7.51894M10.8665 7.51894V7.52976M10.8665 7.51894V7.52976M10.8665 7.52976V7.54057M10.8665 7.52976V7.54057M10.8665 7.54057V7.55138M10.8665 7.54057V7.55138M10.8665 7.55138V7.5622M10.8665 7.55138V7.5622M10.8665 7.5622V7.57301M10.8665 7.5622V7.57301M10.8665 7.57301V7.58383M10.8665 7.57301V7.58383M10.8665 7.58383V7.59464M10.8665 7.58383V7.59464M10.8665 7.59464V7.60546M10.8665 7.59464V7.60546M10.8665 7.60546V7.61627M10.8665 7.60546V7.61627M10.8665 7.61627V7.62708M10.8665 7.61627V7.62708M10.8665 7.62708V7.6379M10.8665 7.62708V7.6379M10.8665 7.6379V7.64871M10.8665 7.6379V7.64871M10.8665 7.64871V7.65953M10.8665 7.64871V7.65953M10.8665 7.65953V7.67034M10.8665 7.65953V7.67034M10.8665 7.67034V7.68115M10.8665 7.67034V7.68115M10.8665 7.68115V7.69197M10.8665 7.68115V7.69197M10.8665 7.69197V7.70278M10.8665 7.69197V7.70278M10.8665 7.70278V7.7136M10.8665 7.70278V7.7136M10.8665 7.7136V7.72441M10.8665 7.7136V7.72441M10.8665 7.72441V7.73523M10.8665 7.72441V7.73523M10.8665 7.73523V7.74604M10.8665 7.73523V7.74604M10.8665 7.74604V7.75685M10.8665 7.74604V7.75685M10.8665 7.75685V7.76767M10.8665 7.75685V7.76767M10.8665 7.76767V7.77848M10.8665 7.76767V7.77848M10.8665 7.77848V7.7893M10.8665 7.77848V7.7893M10.8665 7.7893V7.80011M10.8665 7.7893V7.80011M10.8665 7.80011V7.81093M10.8665 7.80011V7.81093M10.8665 7.81093V7.82174M10.8665 7.81093V7.82174M10.8665 7.82174V7.83255M10.8665 7.82174V7.83255M10.8665 7.83255V7.84337M10.8665 7.83255V7.84337M10.8665 7.84337V7.85418M10.8665 7.84337V7.85418M10.8665 7.85418V7.865M10.8665 7.85418V7.865M10.8665 7.865V7.87581M10.8665 7.865V7.87581M10.8665 7.87581V7.88663M10.8665 7.87581V7.88663M10.8665 7.88663V7.89744M10.8665 7.88663V7.89744M10.8665 7.89744V7.90825M10.8665 7.89744V7.90825M10.8665 7.90825V7.91907M10.8665 7.90825V7.91907M10.8665 7.91907V7.92988M10.8665 7.91907V7.92988M10.8665 7.92988V7.9407M10.8665 7.92988V7.9407M10.8665 7.9407V7.95151M10.8665 7.9407V7.95151M10.8665 7.95151V7.96233M10.8665 7.95151V7.96233M10.8665 7.96233V7.97314M10.8665 7.96233V7.97314M10.8665 7.97314V7.98395M10.8665 7.97314V7.98395M10.8665 7.98395V7.99477M10.8665 7.98395V7.99477M10.8665 7.99477V8.00558M10.8665 7.99477V8.00558M10.8665 8.00558V8.0164M10.8665 8.00558V8.0164M10.8665 8.0164V8.02721M10.8665 8.0164V8.02721M10.8665 8.02721V8.03803M10.8665 8.02721V8.03803M10.8665 8.03803V8.04884M10.8665 8.03803V8.04884M10.8665 8.04884V8.05965M10.8665 8.04884V8.05965M10.8665 8.05965V8.07047M10.8665 8.05965V8.07047M10.8665 8.07047V8.08128M10.8665 8.07047V8.08128M10.8665 8.08128V8.0921M10.8665 8.08128V8.0921M10.8665 8.0921V8.10291M10.8665 8.0921V8.10291M10.8665 8.10291V8.11373M10.8665 8.10291V8.11373M10.8665 8.11373V8.12454M10.8665 8.11373V8.12454M10.8665 8.12454V8.13536M10.8665 8.12454V8.13536M10.8665 8.13536V8.14617M10.8665 8.13536V8.14617M10.8665 8.14617V8.15698M10.8665 8.14617V8.15698M10.8665 8.15698V8.1678M10.8665 8.15698V8.1678M10.8665 8.1678V8.17861M10.8665 8.1678V8.17861M10.8665 8.17861V8.18943M10.8665 8.17861V8.18943M10.8665 8.18943V8.20024M10.8665 8.18943V8.20024M10.8665 8.20024V8.21106M10.8665 8.20024V8.21106M10.8665 8.21106V8.22187M10.8665 8.21106V8.22187M10.8665 8.22187V8.23268M10.8665 8.22187V8.23268M10.8665 8.23268V8.2435M10.8665 8.23268V8.2435M10.8665 8.2435V8.25431M10.8665 8.2435V8.25431M10.8665 8.25431V8.26513M10.8665 8.25431V8.26513M10.8665 8.26513V8.27594M10.8665 8.26513V8.27594M10.8665 8.27594V8.28676M10.8665 8.27594V8.28676M10.8665 8.28676V8.29757M10.8665 8.28676V8.29757M10.8665 8.29757V8.30839M10.8665 8.29757V8.30839M10.8665 8.30839V8.3192M10.8665 8.30839V8.3192M10.8665 8.3192V8.33001M10.8665 8.3192V8.33001M10.8665 8.33001V8.34083M10.8665 8.33001V8.34083M10.8665 8.34083V8.35164M10.8665 8.34083V8.35164M10.8665 8.35164V8.36246M10.8665 8.35164V8.36246M10.8665 8.36246V8.37327M10.8665 8.36246V8.37327M10.8665 8.37327V8.38409M10.8665 8.37327V8.38409M10.8665 8.38409V8.3949M10.8665 8.38409V8.3949M10.8665 8.3949V8.40572M10.8665 8.3949V8.40572M10.8665 8.40572V8.41653M10.8665 8.40572V8.41653M10.8665 8.41653V8.42734M10.8665 8.41653V8.42734M10.8665 8.42734V8.43816M10.8665 8.42734V8.43816M10.8665 8.43816V8.44897M10.8665 8.43816V8.44897M10.8665 8.44897V8.45979M10.8665 8.44897V8.45979M10.8665 8.45979V8.4706M10.8665 8.45979V8.4706M10.8665 8.4706V8.48142M10.8665 8.4706V8.48142M10.8665 8.48142V8.49223M10.8665 8.48142V8.49223M10.8665 8.49223V8.50305M10.8665 8.49223V8.50305M10.8665 8.50305V8.51386M10.8665 8.50305V8.51386M10.8665 8.51386V8.52467M10.8665 8.51386V8.52467M10.8665 8.52467V8.53549M10.8665 8.52467V8.53549M10.8665 8.53549V8.5463M10.8665 8.53549V8.5463M10.8665 8.5463V8.55712M10.8665 8.5463V8.55712M10.8665 8.55712V8.56793M10.8665 8.55712V8.56793M10.8665 8.56793V8.57875M10.8665 8.56793V8.57875M10.8665 8.57875V8.58956M10.8665 8.57875V8.58956M10.8665 8.58956V8.60038M10.8665 8.58956V8.60038M10.8665 8.60038V8.61119M10.8665 8.60038V8.61119M10.8665 8.61119V8.62201M10.8665 8.61119V8.62201M10.8665 8.62201V8.63282M10.8665 8.62201V8.63282M10.8665 8.63282V8.64363M10.8665 8.63282V8.64363M10.8665 8.64363V8.65445M10.8665 8.64363V8.65445M10.8665 8.65445V8.66526M10.8665 8.65445V8.66526M10.8665 8.66526V8.67608M10.8665 8.66526V8.67608M10.8665 8.67608V8.68689M10.8665 8.67608V8.68689M10.8665 8.68689V8.69771M10.8665 8.68689V8.69771M10.8665 8.69771V8.70852M10.8665 8.69771V8.70852M10.8665 8.70852V8.71934M10.8665 8.70852V8.71934M10.8665 8.71934V8.73015M10.8665 8.71934V8.73015M10.8665 8.73015V8.74097M10.8665 8.73015V8.74097M10.8665 8.74097V8.75178M10.8665 8.74097V8.75178M10.8665 8.75178V8.76259M10.8665 8.75178V8.76259M10.8665 8.76259V8.77341M10.8665 8.76259V8.77341M10.8665 8.77341V8.78422M10.8665 8.77341V8.78422M10.8665 8.78422V8.79504M10.8665 8.78422V8.79504M10.8665 8.79504V8.80585M10.8665 8.79504V8.80585M10.8665 8.80585V8.81667M10.8665 8.80585V8.81667M10.8665 8.81667V8.82748M10.8665 8.81667V8.82748M10.8665 8.82748V8.8383M10.8665 8.82748V8.8383M10.8665 8.8383V8.84911M10.8665 8.8383V8.84911M10.8665 8.84911V8.85993M10.8665 8.84911V8.85993M10.8665 8.85993V8.87074M10.8665 8.85993V8.87074M10.8665 8.87074V8.88156M10.8665 8.87074V8.88156M10.8665 8.88156V8.89237M10.8665 8.88156V8.89237M10.8665 8.89237V8.90318M10.8665 8.89237V8.90318M10.8665 8.90318V8.914M10.8665 8.90318V8.914M10.8665 8.914V8.92481M10.8665 8.914V8.92481M10.8665 8.92481V8.93563M10.8665 8.92481V8.93563M10.8665 8.93563V8.94644M10.8665 8.93563V8.94644M10.8665 8.94644V8.95726M10.8665 8.94644V8.95726M10.8665 8.95726V8.96807M10.8665 8.95726V8.96807M10.8665 8.96807V8.97889M10.8665 8.96807V8.97889M10.8665 8.97889V8.9897M10.8665 8.97889V8.9897M10.8665 8.9897V9.00052M10.8665 8.9897V9.00052M10.8665 9.00052V9.01133M10.8665 9.00052V9.01133M10.8665 9.01133V9.02215M10.8665 9.01133V9.02215M10.8665 9.02215V9.03296M10.8665 9.02215V9.03296M10.8665 9.03296V9.04378M10.8665 9.03296V9.04378M10.8665 9.04378V9.05459M10.8665 9.04378V9.05459M10.8665 9.05459V9.0654M10.8665 9.05459V9.0654M10.8665 9.0654V9.07622M10.8665 9.0654V9.07622M10.8665 9.07622V9.08703M10.8665 9.07622V9.08703M10.8665 9.08703V9.09785M10.8665 9.08703V9.09785M10.8665 9.09785V9.10866M10.8665 9.09785V9.10866M10.8665 9.10866V9.11948M10.8665 9.10866V9.11948M10.8665 9.11948V9.13029M10.8665 9.11948V9.13029M10.8665 9.13029V9.14111M10.8665 9.13029V9.14111M10.8665 9.14111V9.15192M10.8665 9.14111V9.15192M10.8665 9.15192V9.16274M10.8665 9.15192V9.16274M10.8665 9.16274V9.17355M10.8665 9.16274V9.17355M10.8665 9.17355V9.18437M10.8665 9.17355V9.18437M10.8665 9.18437V9.19518M10.8665 9.18437V9.19518M10.8665 9.19518V9.206M10.8665 9.19518V9.206M10.8665 9.206V9.21681M10.8665 9.206V9.21681M10.8665 9.21681V9.22763M10.8665 9.21681V9.22763M10.8665 9.22763V9.23844M10.8665 9.22763V9.23844M10.8665 9.23844V9.24925M10.8665 9.23844V9.24925M10.8665 9.24925V9.26007M10.8665 9.24925V9.26007M10.8665 9.26007V9.27088M10.8665 9.26007V9.27088M10.8665 9.27088V9.2817M10.8665 9.27088V9.2817M10.8665 9.2817V9.29251M10.8665 9.2817V9.29251M10.8665 9.29251V9.30333M10.8665 9.29251V9.30333M10.8665 9.30333V9.31414M10.8665 9.30333V9.31414M10.8665 9.31414V9.32496M10.8665 9.31414V9.32496M10.8665 9.32496V9.33577M10.8665 9.32496V9.33577M10.8665 9.33577V9.34659M10.8665 9.33577V9.34659M10.8665 9.34659V9.3574M10.8665 9.34659V9.3574M10.8665 9.3574V9.36822M10.8665 9.3574V9.36822M10.8665 9.36822V9.37903M10.8665 9.36822V9.37903M10.8665 9.37903V9.38985M10.8665 9.37903V9.38985M10.8665 9.38985V9.40066M10.8665 9.38985V9.40066M10.8665 9.40066V9.41148M10.8665 9.40066V9.41148M10.8665 9.41148V9.42229M10.8665 9.41148V9.42229M10.8665 9.42229V9.43311M10.8665 9.42229V9.43311M10.8665 9.43311V9.44392M10.8665 9.43311V9.44392M10.8665 9.44392V9.45474M10.8665 9.44392V9.45474M10.8665 9.45474V9.46555M10.8665 9.45474V9.46555M10.8665 9.46555V9.47637M10.8665 9.46555V9.47637M10.8665 9.47637V9.48718M10.8665 9.47637V9.48718M10.8665 9.48718V9.498M10.8665 9.48718V9.498M10.8665 9.498V9.50881M10.8665 9.498V9.50881M10.8665 9.50881V9.51962M10.8665 9.50881V9.51962M10.8665 9.51962V9.53044M10.8665 9.51962V9.53044M10.8665 9.53044V9.54125M10.8665 9.53044V9.54125M10.8665 9.54125V9.55207M10.8665 9.54125V9.55207M10.8665 9.55207V9.56288M10.8665 9.55207V9.56288M10.8665 9.56288V9.5737M10.8665 9.56288V9.5737M10.8665 9.5737V9.58451M10.8665 9.5737V9.58451M10.8665 9.58451V9.59533M10.8665 9.58451V9.59533M10.8665 9.59533V9.60614M10.8665 9.59533V9.60614M10.8665 9.60614V9.61696M10.8665 9.60614V9.61696M10.8665 9.61696V9.62777M10.8665 9.61696V9.62777M10.8665 9.62777V9.63859M10.8665 9.62777V9.63859M10.8665 9.63859V9.6494M10.8665 9.63859V9.6494M10.8665 9.6494V9.66022M10.8665 9.6494V9.66022M10.8665 9.66022V9.67103M10.8665 9.66022V9.67103M10.8665 9.67103V9.68185M10.8665 9.67103V9.68185M10.8665 9.68185V9.69266M10.8665 9.68185V9.69266M10.8665 9.69266V9.70348M10.8665 9.69266V9.70348M10.8665 9.70348V9.71429M10.8665 9.70348V9.71429M10.8665 9.71429V9.72511M10.8665 9.71429V9.72511M10.8665 9.72511V9.73592M10.8665 9.72511V9.73592M10.8665 9.73592V9.74674M10.8665 9.73592V9.74674M10.8665 9.74674V9.75755M10.8665 9.74674V9.75755M10.8665 9.75755V9.76837M10.8665 9.75755V9.76837M10.8665 9.76837V9.77918M10.8665 9.76837V9.77918M10.8665 9.77918V9.79M10.8665 9.77918V9.79M10.8665 9.79V9.80081M10.8665 9.79V9.80081M10.8665 9.80081V9.81163M10.8665 9.80081V9.81163M10.8665 9.81163V9.82244M10.8665 9.81163V9.82244M10.8665 9.82244V9.83326M10.8665 9.82244V9.83326M10.8665 9.83326V9.84407M10.8665 9.83326V9.84407M10.8665 9.84407V9.85489M10.8665 9.84407V9.85489M10.8665 9.85489V9.8657M10.8665 9.85489V9.8657M10.8665 9.8657V9.87652M10.8665 9.8657V9.87652M10.8665 9.87652V9.88733M10.8665 9.87652V9.88733M10.8665 9.88733V9.89815M10.8665 9.88733V9.89815M10.8665 9.89815V9.90896M10.8665 9.89815V9.90896M10.8665 9.90896V9.91978M10.8665 9.90896V9.91978M10.8665 9.91978V9.93059M10.8665 9.91978V9.93059M10.8665 9.93059V9.94141M10.8665 9.93059V9.94141M10.8665 9.94141V9.95222M10.8665 9.94141V9.95222M10.8665 9.95222V9.96304M10.8665 9.95222V9.96304M10.8665 9.96304V9.97385M10.8665 9.96304V9.97385M10.8665 9.97385V9.98467M10.8665 9.97385V9.98467M10.8665 9.98467V9.99548M10.8665 9.98467V9.99548M10.8665 9.99548V10.0063M10.8665 9.99548V10.0063M10.8665 10.0063V10.0171M10.8665 10.0063V10.0171M10.8665 10.0171V10.0279M10.8665 10.0171V10.0279M10.8665 10.0279V10.0387M10.8665 10.0279V10.0387M10.8665 10.0387V10.0496M10.8665 10.0387V10.0496M10.8665 10.0496V10.0604M10.8665 10.0496V10.0604M10.8665 10.0604V10.0712M10.8665 10.0604V10.0712M10.8665 10.0712V10.082M10.8665 10.0712V10.082M10.8665 10.082V10.0928M10.8665 10.082V10.0928M10.8665 10.0928V10.1036M10.8665 10.0928V10.1036M10.8665 10.1036V10.1144M10.8665 10.1036V10.1144M10.8665 10.1144V10.1253M10.8665 10.1144V10.1253M10.8665 10.1253V10.1361M10.8665 10.1253V10.1361M10.8665 10.1361V10.1469M10.8665 10.1361V10.1469M10.8665 10.1469V10.1577M10.8665 10.1469V10.1577M10.8665 10.1577V10.1685M10.8665 10.1577V10.1685M10.8665 10.1685V10.1793M10.8665 10.1685V10.1793M10.8665 10.1793V10.1902M10.8665 10.1793V10.1902M10.8665 10.1902V10.201M10.8665 10.1902V10.201M10.8665 10.201V10.2118M10.8665 10.201V10.2118M10.8665 10.2118V10.2226M10.8665 10.2118V10.2226M10.8665 10.2226V10.2334M10.8665 10.2226V10.2334M10.8665 10.2334V10.2442M10.8665 10.2334V10.2442M10.8665 10.2442V10.255M10.8665 10.2442V10.255M10.8665 10.255V10.2659M10.8665 10.255V10.2659M10.8665 10.2659V10.2767M10.8665 10.2659V10.2767M10.8665 10.2767V10.2875M10.8665 10.2767V10.2875M10.8665 10.2875V10.2983M10.8665 10.2875V10.2983M10.8665 10.2983V10.3091M10.8665 10.2983V10.3091M10.8665 10.3091V10.3199M10.8665 10.3091V10.3199M10.8665 10.3199V10.3307M10.8665 10.3199V10.3307M10.8665 10.3307V10.3416M10.8665 10.3307V10.3416M10.8665 10.3416V10.3524M10.8665 10.3416V10.3524M10.8665 10.3524V10.3632M10.8665 10.3524V10.3632M10.8665 10.3632V10.374M10.8665 10.3632V10.374M10.8665 10.374V10.3848M10.8665 10.374V10.3848M10.8665 10.3848V10.3956M10.8665 10.3848V10.3956M10.8665 10.3956V10.4065M10.8665 10.3956V10.4065M10.8665 10.4065V10.4173M10.8665 10.4065V10.4173M10.8665 10.4173V10.4281M10.8665 10.4173V10.4281M10.8665 10.4281V10.4389M10.8665 10.4281V10.4389M10.8665 10.4389V10.4497M10.8665 10.4389V10.4497M10.8665 10.4497V10.4605M10.8665 10.4497V10.4605M10.8665 10.4605V10.4713M10.8665 10.4605V10.4713M10.8665 10.4713V10.4822M10.8665 10.4713V10.4822M10.8665 10.4822V10.493M10.8665 10.4822V10.493M10.8665 10.493V10.5038M10.8665 10.493V10.5038M10.8665 10.5038V10.5146M10.8665 10.5038V10.5146M10.8665 10.5146V10.5254M10.8665 10.5146V10.5254M10.8665 10.5254V10.5362M10.8665 10.5254V10.5362M10.8665 10.5362V10.5471M10.8665 10.5362V10.5471M10.8665 10.5471V10.5579M10.8665 10.5471V10.5579M10.8665 10.5579V10.5687M10.8665 10.5579V10.5687M10.8665 10.5687V10.5795M10.8665 10.5687V10.5795M10.8665 10.5795V10.5903M10.8665 10.5795V10.5903M10.8665 10.5903V10.6011M10.8665 10.5903V10.6011M10.8665 10.6011V10.6119M10.8665 10.6011V10.6119M10.8665 10.6119V10.6228M10.8665 10.6119V10.6228M10.8665 10.6228V10.6336M10.8665 10.6228V10.6336M10.8665 10.6336V10.6444M10.8665 10.6336V10.6444M10.8665 10.6444V10.6552M10.8665 10.6444V10.6552M10.8665 10.6552V10.666M10.8665 10.6552V10.666M10.8665 10.666V10.6768M10.8665 10.666V10.6768M10.8665 10.6768V10.6876M10.8665 10.6768V10.6876M10.8665 10.6876V10.6985M10.8665 10.6876V10.6985M10.8665 10.6985V10.7093M10.8665 10.6985V10.7093M10.8665 10.7093V10.7201M10.8665 10.7093V10.7201M10.8665 10.7201V10.7309M10.8665 10.7201V10.7309M10.8665 10.7309V10.7417M10.8665 10.7309V10.7417M10.8665 10.7417V10.7525M10.8665 10.7417V10.7525M10.8665 10.7525V10.7634M10.8665 10.7525V10.7634M10.8665 10.7634V10.7742M10.8665 10.7634V10.7742M10.8665 10.7742V10.785M10.8665 10.7742V10.785M10.8665 10.785V10.7958M10.8665 10.785V10.7958M10.8665 10.7958V10.8066M10.8665 10.7958V10.8066M10.8665 10.8066V10.8174M10.8665 10.8066V10.8174M10.8665 10.8174V10.8282M10.8665 10.8174V10.8282M10.8665 10.8282V10.8391M10.8665 10.8282V10.8391M10.8665 10.8391V10.8499M10.8665 10.8391V10.8499M10.8665 10.8499V10.8607M10.8665 10.8499V10.8607M10.8665 10.8607V10.8715M10.8665 10.8607V10.8715M10.8665 10.8715V10.8823M10.8665 10.8715V10.8823M10.8665 10.8823V10.8931M10.8665 10.8823V10.8931M10.8665 10.8931V10.904M10.8665 10.8931V10.904M10.8665 10.904V10.9148M10.8665 10.904V10.9148M10.8665 10.9148V10.9256M10.8665 10.9148V10.9256M10.8665 10.9256V10.9364M10.8665 10.9256V10.9364M10.8665 10.9364V10.9472M10.8665 10.9364V10.9472M10.8665 10.9472V10.958M10.8665 10.9472V10.958M10.8665 10.958V10.9688M10.8665 10.958V10.9688M10.8665 10.9688V10.9797M10.8665 10.9688V10.9797M10.8665 10.9797V10.9905M10.8665 10.9797V10.9905M10.8665 10.9905V11.0013M10.8665 10.9905V11.0013M10.8665 11.0013V11.0121M10.8665 11.0013V11.0121M10.8665 11.0121V11.0229M10.8665 11.0121V11.0229M10.8665 11.0229V11.0337M10.8665 11.0229V11.0337M10.8665 11.0337V11.0446M10.8665 11.0337V11.0446M10.8665 11.0446V11.0554M10.8665 11.0446V11.0554M10.8665 11.0554V11.0662M10.8665 11.0554V11.0662M10.8665 11.0662V11.077M10.8665 11.0662V11.077M10.8665 11.077V11.0878M10.8665 11.077V11.0878M10.8665 11.0878V11.0986M10.8665 11.0878V11.0986M10.8665 11.0986V11.1094M10.8665 11.0986V11.1094M10.8665 11.1094V11.1203M10.8665 11.1094V11.1203M10.8665 11.1203V11.1311M10.8665 11.1203V11.1311M10.8665 11.1311V11.1419M10.8665 11.1311V11.1419M10.8665 11.1419V11.1527M10.8665 11.1419V11.1527M10.8665 11.1527V11.1635M10.8665 11.1527V11.1635M10.8665 11.1635V11.1743M10.8665 11.1635V11.1743M10.8665 11.1743V11.1852M10.8665 11.1743V11.1852M10.8665 11.1852V11.196M10.8665 11.1852V11.196M10.8665 11.196V11.2068M10.8665 11.196V11.2068M10.8665 11.2068V11.2176M10.8665 11.2068V11.2176M10.8665 11.2176V11.2284M10.8665 11.2176V11.2284M10.8665 11.2284V11.2392M10.8665 11.2284V11.2392M10.8665 11.2392V11.25M10.8665 11.2392V11.25M10.8665 11.25V11.2609M10.8665 11.25V11.2609M10.8665 11.2609V11.2717M10.8665 11.2609V11.2717M10.8665 11.2717V11.2825M10.8665 11.2717V11.2825M10.8665 11.2825V11.2933M10.8665 11.2825V11.2933M10.8665 11.2933V11.3041M10.8665 11.2933V11.3041M10.8665 11.3041V11.3149M10.8665 11.3041V11.3149M10.8665 11.3149V11.3258M10.8665 11.3149V11.3258M10.8665 11.3258V11.3366M10.8665 11.3258V11.3366M10.8665 11.3366V11.3474M10.8665 11.3366V11.3474M10.8665 11.3474V11.3582M10.8665 11.3474V11.3582M10.8665 11.3582V11.369M10.8665 11.3582V11.369M10.8665 11.369V11.3798M10.8665 11.369V11.3798M10.8665 11.3798V11.3906M10.8665 11.3798V11.3906M10.8665 11.3906V11.4015M10.8665 11.3906V11.4015M10.8665 11.4015V11.4123M10.8665 11.4015V11.4123M10.8665 11.4123V11.4231M10.8665 11.4123V11.4231M10.8665 11.4231V11.4339M10.8665 11.4231V11.4339M10.8665 11.4339V11.4447M10.8665 11.4339V11.4447M10.8665 11.4447V11.4555M10.8665 11.4447V11.4555M10.8665 11.4555V11.4664M10.8665 11.4555V11.4664M10.8665 11.4664V11.4772M10.8665 11.4664V11.4772M10.8665 11.4772V11.488M10.8665 11.4772V11.488M10.8665 11.488V11.4988M10.8665 11.488V11.4988M10.8665 11.4988V11.5096M10.8665 11.4988V11.5096M10.8665 11.5096V11.5204M10.8665 11.5096V11.5204M10.8665 11.5204V11.5312M10.8665 11.5204V11.5312M10.8665 11.5312V11.5421M10.8665 11.5312V11.5421M10.8665 11.5421V11.5529M10.8665 11.5421V11.5529M10.8665 11.5529V11.5637M10.8665 11.5529V11.5637M10.8665 11.5637V11.5745M10.8665 11.5637V11.5745M10.8665 11.5745V11.5853M10.8665 11.5745V11.5853M10.8665 11.5853V11.5961M10.8665 11.5853V11.5961M10.8665 11.5961V11.607M10.8665 11.5961V11.607M10.8665 11.607V11.6178M10.8665 11.607V11.6178M10.8665 11.6178V11.6286M10.8665 11.6178V11.6286M10.8665 11.6286V11.6394M10.8665 11.6286V11.6394M10.8665 11.6394V11.6502M10.8665 11.6394V11.6502M10.8665 11.6502V11.661M10.8665 11.6502V11.661M10.8665 11.661V11.6719M10.8665 11.661V11.6719M10.8665 11.6719V11.6827M10.8665 11.6719V11.6827M10.8665 11.6827V11.6935M10.8665 11.6827V11.6935M10.8665 11.6935V11.7043M10.8665 11.6935V11.7043M10.8665 11.7043V11.7151M10.8665 11.7043V11.7151M10.8665 11.7151V11.7259M10.8665 11.7151V11.7259M10.8665 11.7259V11.7367M10.8665 11.7259V11.7367M10.8665 11.7367V11.7476M10.8665 11.7367V11.7476M10.8665 11.7476V11.7584M10.8665 11.7476V11.7584M10.8665 11.7584V11.7692M10.8665 11.7584V11.7692M10.8665 11.7692V11.78M10.8665 11.7692V11.78M10.8665 11.78V11.7908M10.8665 11.78V11.7908M10.8665 11.7908V11.8016M10.8665 11.7908V11.8016M10.8665 11.8016V11.8125M10.8665 11.8016V11.8125M10.8665 11.8125V11.8233M10.8665 11.8125V11.8233M10.8665 11.8233V11.8341M10.8665 11.8233V11.8341M10.8665 11.8341V11.8449M10.8665 11.8341V11.8449M10.8665 11.8449V11.8557M10.8665 11.8449V11.8557M10.8665 11.8557V11.8665M10.8665 11.8557V11.8665M10.8665 11.8665V11.8773M10.8665 11.8665V11.8773M10.8665 11.8773V11.8882M10.8665 11.8773V11.8882M10.8665 11.8882V11.899M10.8665 11.8882V11.899M10.8665 11.899V11.9098M10.8665 11.899V11.9098M10.8665 11.9098V11.9206M10.8665 11.9098V11.9206M10.8665 11.9206V11.9314M10.8665 11.9206V11.9314M10.8665 11.9314V11.9422M10.8665 11.9314V11.9422M10.8665 11.9422V11.9531M10.8665 11.9422V11.9531M10.8665 11.9531V11.9639M10.8665 11.9531V11.9639M10.8665 11.9639V11.9747M10.8665 11.9639V11.9747M10.8665 11.9747V11.9855M10.8665 11.9747V11.9855M10.8665 11.9855V11.9963M10.8665 11.9855V11.9963M10.8665 11.9963V12.0071M10.8665 11.9963V12.0071M10.8665 12.0071V12.018M10.8665 12.0071V12.018M10.8665 12.018V12.0288M10.8665 12.018V12.0288M10.8665 12.0288V12.0396M10.8665 12.0288V12.0396M10.8665 12.0396V12.0504M10.8665 12.0396V12.0504M10.8665 12.0504V12.0612M10.8665 12.0504V12.0612M10.8665 12.0612V12.072M10.8665 12.0612V12.072M10.8665 12.072V12.0828M10.8665 12.072V12.0828M10.8665 12.0828V12.0937M10.8665 12.0828V12.0937M10.8665 12.0937V12.1045M10.8665 12.0937V12.1045M10.8665 12.1045V12.1153M10.8665 12.1045V12.1153M10.8665 12.1153V12.1261M10.8665 12.1153V12.1261M10.8665 12.1261V12.1369M10.8665 12.1261V12.1369M10.8665 12.1369V12.1477M10.8665 12.1369V12.1477M10.8665 12.1477V12.1586M10.8665 12.1477V12.1586M10.8665 12.1586V12.1694M10.8665 12.1586V12.1694M10.8665 12.1694V12.1802M10.8665 12.1694V12.1802M10.8665 12.1802V12.191M10.8665 12.1802V12.191M10.8665 12.191V12.2018M10.8665 12.191V12.2018M10.8665 12.2018V12.2126M10.8665 12.2018V12.2126M10.8665 12.2126V12.2235M10.8665 12.2126V12.2235M10.8665 12.2235V12.2343M10.8665 12.2235V12.2343M10.8665 12.2343V12.2451M10.8665 12.2343V12.2451M10.8665 12.2451V12.2559M10.8665 12.2451V12.2559M10.8665 12.2559V12.2859M10.8665 12.2559V12.2859M10.8665 12.2859V12.316M10.8665 12.2859V12.316M10.8665 12.316V12.346M10.8665 12.316V12.346M10.8665 12.346V12.376M10.8665 12.346V12.376M10.8665 12.376V12.406M10.8665 12.376V12.406M10.8665 12.406V12.4361M10.8665 12.406V12.4361M10.8665 12.4361V12.4661M10.8665 12.4361V12.4661M10.8665 12.4661V12.4961M10.8665 12.4661V12.4961M10.8665 12.4961V12.5261M10.8665 12.4961V12.5261M10.8665 12.5261V12.5562M10.8665 12.5261V12.5562M10.8665 12.5562V12.5862M10.8665 12.5562V12.5862M10.8665 12.5862V12.6162M10.8665 12.5862V12.6162M10.8665 12.6162V12.6462M10.8665 12.6162V12.6462M10.8665 12.6462V12.6763M10.8665 12.6462V12.6763M10.8665 12.6763V12.7063M10.8665 12.6763V12.7063M10.8665 12.7063V12.7363M10.8665 12.7063V12.7363M10.8665 12.7363V12.7663M10.8665 12.7363V12.7663M10.8665 12.7663V12.7964M10.8665 12.7663V12.7964M10.8665 12.7964V12.8264M10.8665 12.7964V12.8264M10.8665 12.8264V12.8564M10.8665 12.8264V12.8564M10.8665 12.8564V12.8864M10.8665 12.8564V12.8864M10.8665 12.8864V12.9165M10.8665 12.8864V12.9165M10.8665 12.9165V12.9465M10.8665 12.9165V12.9465M10.8665 12.9465V12.9765M10.8665 12.9465V12.9765M10.8665 12.9765V13.0065M10.8665 12.9765V13.0065M10.8665 13.0065V13.0366M10.8665 13.0065V13.0366M10.8665 13.0366V13.0666M10.8665 13.0366V13.0666M10.8665 13.0666V13.0966M10.8665 13.0666V13.0966M10.8665 13.0966V13.1266M10.8665 13.0966V13.1266M10.8665 13.1266V13.1567M10.8665 13.1266V13.1567M10.8665 13.1567V13.1867M10.8665 13.1567V13.1867M10.8665 13.1867V13.2167M10.8665 13.1867V13.2167M10.8665 13.2167V13.2467M10.8665 13.2167V13.2467M10.8665 13.2467V13.2768M10.8665 13.2467V13.2768M10.8665 13.2768V13.3068M10.8665 13.2768V13.3068M10.8665 13.3068V13.3368M10.8665 13.3068V13.3368M10.8665 13.3368V13.3668M10.8665 13.3368V13.3668M10.8665 13.3668V13.3969M10.8665 13.3668V13.3969M10.8665 13.3969V13.4269M10.8665 13.3969V13.4269M10.8665 13.4269V13.4569M10.8665 13.4269V13.4569M10.8665 13.4569V13.4869M10.8665 13.4569V13.4869M10.8665 13.4869V13.517M10.8665 13.4869V13.517M10.8665 13.517V13.547M10.8665 13.517V13.547M10.8665 13.547V13.577M10.8665 13.547V13.577M10.8665 13.577V13.607M10.8665 13.577V13.607M10.8665 13.607V13.6371M10.8665 13.607V13.6371M10.8665 13.6371V13.6671M10.8665 13.6371V13.6671M10.8665 13.6671V13.6971M10.8665 13.6671V13.6971M10.8665 13.6971V13.7271M10.8665 13.6971V13.7271M10.8665 13.7271V13.7572M10.8665 13.7271V13.7572M10.8665 13.7572V13.7872M10.8665 13.7572V13.7872M10.8665 13.7872V13.8172M10.8665 13.7872V13.8172M10.8665 13.8172V13.8472M10.8665 13.8172V13.8472M10.8665 13.8472V13.8773M10.8665 13.8472V13.8773M10.8665 13.8773V13.9073M10.8665 13.8773V13.9073M10.8665 13.9073V13.9373M10.8665 13.9073V13.9373M10.8665 13.9373V13.9673M10.8665 13.9373V13.9673M10.8665 13.9673V13.9974M10.8665 13.9673V13.9974M10.8665 13.9974V14.0274M10.8665 13.9974V14.0274M10.8665 14.0274V14.0574M10.8665 14.0274V14.0574M10.8665 14.0574V14.0874M10.8665 14.0574V14.0874M10.8665 14.0874V14.1175M10.8665 14.0874V14.1175M10.8665 14.1175V14.1475M10.8665 14.1175V14.1475M10.8665 14.1475V14.1775M10.8665 14.1475V14.1775M10.8665 14.1775V14.2075M10.8665 14.1775V14.2075M10.8665 14.2075V14.2376M10.8665 14.2075V14.2376M10.8665 14.2376V14.2676M10.8665 14.2376V14.2676M10.8665 14.2676V14.2976M10.8665 14.2676V14.2976M10.8665 14.2976V14.3277M10.8665 14.2976V14.3277M10.8665 14.3277V14.3577M10.8665 14.3277V14.3577M10.8665 14.3577V14.3877M10.8665 14.3577V14.3877M10.8665 14.3877V14.4177M10.8665 14.3877V14.4177M10.8665 14.4177V14.4478M10.8665 14.4177V14.4478M10.8665 14.4478V14.4778M10.8665 14.4478V14.4778M10.8665 14.4778V14.5078M10.8665 14.4778V14.5078M10.8665 14.5078V14.5378M10.8665 14.5078V14.5378M10.8665 14.5378V14.5679M10.8665 14.5378V14.5679M10.8665 14.5679V14.5979M10.8665 14.5679V14.5979M10.8665 14.5979V14.6279M10.8665 14.5979V14.6279M10.8665 14.6279V14.6579M10.8665 14.6279V14.6579M10.8665 14.6579V14.688M10.8665 14.6579V14.688M10.8665 14.688V14.718M10.8665 14.688V14.718M10.8665 14.718V14.748M10.8665 14.718V14.748M10.8665 14.748V14.778M10.8665 14.748V14.778M10.8665 14.778V14.8081M10.8665 14.778V14.8081M10.8665 14.8081V14.8381M10.8665 14.8081V14.8381M10.8665 14.8381V14.8681M10.8665 14.8381V14.8681M10.8665 14.8681V14.8981M10.8665 14.8681V14.8981M10.8665 14.8981V14.9282M10.8665 14.8981V14.9282M10.8665 14.9282V14.9582M10.8665 14.9282V14.9582M10.8665 14.9582V14.9882M10.8665 14.9582V14.9882M10.8665 14.9882V15.0182M10.8665 14.9882V15.0182M10.8665 15.0182V15.0483M10.8665 15.0182V15.0483M10.8665 15.0483V15.0783M10.8665 15.0483V15.0783M10.8665 15.0783V15.1083M10.8665 15.0783V15.1083M10.8665 15.1083V15.1383M10.8665 15.1083V15.1383M10.8665 15.1383V15.1684M10.8665 15.1383V15.1684M10.8665 15.1684V15.1984M10.8665 15.1684V15.1984M10.8665 15.1984V15.2284M10.8665 15.1984V15.2284M10.8665 15.2284V15.2584M10.8665 15.2284V15.2584M10.8665 15.2584V15.2885M10.8665 15.2584V15.2885M10.8665 15.2885V15.3185M10.8665 15.2885V15.3185M10.8665 15.3185V15.3485M10.8665 15.3185V15.3485M10.8665 15.3485V15.3785M10.8665 15.3485V15.3785M10.8665 15.3785V15.4086M10.8665 15.3785V15.4086M10.8665 15.4086V15.4386M10.8665 15.4086V15.4386M10.8665 15.4386V15.4686M10.8665 15.4386V15.4686M10.8665 15.4686V15.4986M10.8665 15.4686V15.4986M10.8665 15.4986V15.5287M10.8665 15.4986V15.5287M10.8665 15.5287V15.5587M10.8665 15.5287V15.5587M10.8665 15.5587V15.5887M10.8665 15.5587V15.5887M10.8665 15.5887V15.6188M10.8665 15.5887V15.6188M10.8665 15.6188V15.6488M10.8665 15.6188V15.6488M10.8665 15.6488V15.6788M10.8665 15.6488V15.6788M10.8665 15.6788V15.7088M10.8665 15.6788V15.7088M10.8665 15.7088V15.7389M10.8665 15.7088V15.7389M10.8665 15.7389V15.7689M10.8665 15.7389V15.7689M10.8665 15.7689V15.7989M10.8665 15.7689V15.7989M10.8665 15.7989V15.8289M10.8665 15.7989V15.8289M10.8665 15.8289V15.859M10.8665 15.8289V15.859M10.8665 15.859V15.889M10.8665 15.859V15.889M10.8665 15.889V15.919M10.8665 15.889V15.919M10.8665 15.919V15.949M10.8665 15.919V15.949M10.8665 15.949V15.9791M10.8665 15.949V15.9791M10.8665 15.9791V16.0091M10.8665 15.9791V16.0091M10.8665 16.0091V16.0391M10.8665 16.0091V16.0391M10.8665 16.0391V16.0691M10.8665 16.0391V16.0691M10.8665 16.0691V16.0992M10.8665 16.0691V16.0992M10.8665 16.0992V16.1292M10.8665 16.0992V16.1292M10.8665 16.1292V16.1592M10.8665 16.1292V16.1592M10.8665 16.1592V16.1892M10.8665 16.1592V16.1892M10.8665 16.1892V16.2193M10.8665 16.1892V16.2193M10.8665 16.2193V16.2493M10.8665 16.2193V16.2493M10.8665 16.2493V16.2793M10.8665 16.2493V16.2793M10.8665 16.2793V16.3093M10.8665 16.2793V16.3093M10.8665 16.3093V16.3394M10.8665 16.3093V16.3394M10.8665 16.3394V16.3694M10.8665 16.3394V16.3694M10.8665 16.3694V16.3994M10.8665 16.3694V16.3994M10.8665 16.3994V16.4294M10.8665 16.3994V16.4294M10.8665 16.4294V16.4595M10.8665 16.4294V16.4595M10.8665 16.4595V16.4895M10.8665 16.4595V16.4895M10.8665 16.4895V16.5195M10.8665 16.4895V16.5195M10.8665 16.5195V16.5495M10.8665 16.5195V16.5495M10.8665 16.5495V16.5796M10.8665 16.5495V16.5796M10.8665 16.5796V16.6096M10.8665 16.5796V16.6096M10.8665 16.6096V16.6396M10.8665 16.6096V16.6396M10.8665 16.6396V16.6697M10.8665 16.6396V16.6697M10.8665 16.6697V16.6997M10.8665 16.6697V16.6997M10.8665 16.6997V16.7297M10.8665 16.6997V16.7297M10.8665 16.7297V16.7597M10.8665 16.7297V16.7597M10.8665 16.7597V16.7898M10.8665 16.7597V16.7898M10.8665 16.7898V16.8198M10.8665 16.7898V16.8198M10.8665 16.8198V16.8498M10.8665 16.8198V16.8498M10.8665 16.8498V16.8798M10.8665 16.8498V16.8798M10.8665 16.8798V16.9099M10.8665 16.8798V16.9099M10.8665 16.9099V16.9399M10.8665 16.9099V16.9399M10.8665 16.9399V16.9699M10.8665 16.9399V16.9699M10.8665 16.9699V16.9999M10.8665 16.9699V16.9999M10.8665 16.9999V17.03M10.8665 16.9999V17.03M10.8665 17.03V17.06M10.8665 17.03V17.06M10.8665 17.06V17.09M10.8665 17.06V17.09M10.8665 17.09V17.12M10.8665 17.09V17.12M10.8665 17.12V17.1501M10.8665 17.12V17.1501M10.8665 17.1501V17.1801M10.8665 17.1501V17.1801M10.8665 17.1801V17.2101M10.8665 17.1801V17.2101M10.8665 17.2101V17.2401M10.8665 17.2101V17.2401M10.8665 17.2401V17.2702M10.8665 17.2401V17.2702M10.8665 17.2702V17.3002M10.8665 17.2702V17.3002M10.8665 17.3002V17.3302M10.8665 17.3002V17.3302M10.8665 17.3302V17.3602M10.8665 17.3302V17.3602M10.8665 17.3602V17.3903M10.8665 17.3602V17.3903M10.8665 17.3903V17.4203M10.8665 17.3903V17.4203M10.8665 17.4203V17.4503M10.8665 17.4203V17.4503M10.8665 17.4503V17.4803M10.8665 17.4503V17.4803M10.8665 17.4803V17.5104M10.8665 17.4803V17.5104M10.8665 17.5104V17.5404M10.8665 17.5104V17.5404M10.8665 17.5404V17.5704M10.8665 17.5404V17.5704M10.8665 17.5704V17.6005M10.8665 17.5704V17.6005M10.8665 17.6005V17.6305M10.8665 17.6005V17.6305M10.8665 17.6305V17.6605M10.8665 17.6305V17.6605M10.8665 17.6605V17.6905M10.8665 17.6605V17.6905M10.8665 17.6905V17.7206M10.8665 17.6905V17.7206M10.8665 17.7206V17.7506M10.8665 17.7206V17.7506M10.8665 17.7506V17.7806M10.8665 17.7506V17.7806M10.8665 17.7806V17.8106M10.8665 17.7806V17.8106M10.8665 17.8106V17.8407M10.8665 17.8106V17.8407M10.8665 17.8407V17.8707M10.8665 17.8407V17.8707M10.8665 17.8707V17.9007M10.8665 17.8707V17.9007M10.8665 17.9007V17.9307M10.8665 17.9007V17.9307M10.8665 17.9307V17.9608M10.8665 17.9307V17.9608M10.8665 17.9608V17.9908M10.8665 17.9608V17.9908M10.8665 17.9908V18.0208M10.8665 17.9908V18.0208M10.8665 18.0208V18.0508M10.8665 18.0208V18.0508M10.8665 18.0508V18.0809M10.8665 18.0508V18.0809M10.8665 18.0809V18.1109M10.8665 18.0809V18.1109M10.8665 18.1109V18.1409M10.8665 18.1109V18.1409M10.8665 18.1409V18.1709M10.8665 18.1409V18.1709M10.8665 18.1709V18.201M10.8665 18.1709V18.201M10.8665 18.201V18.231M10.8665 18.201V18.231M10.8665 18.231V18.261M10.8665 18.231V18.261M10.8665 18.261V18.291M10.8665 18.261V18.291M10.8665 18.291V18.3211M10.8665 18.291V18.3211M10.8665 18.3211V18.3511M10.8665 18.3211V18.3511M10.8665 18.3511V18.3811M10.8665 18.3511V18.3811M10.8665 18.3811V18.4112M10.8665 18.3811V18.4112M10.8665 18.4112V18.4412M10.8665 18.4112V18.4412M10.8665 18.4412V18.4712M10.8665 18.4412V18.4712M10.8665 18.4712V18.5012M10.8665 18.4712V18.5012M10.8665 18.5012V18.5313M10.8665 18.5012V18.5313M10.8665 18.5313V18.5613M10.8665 18.5313V18.5613M10.8665 18.5613V18.5913M10.8665 18.5613V18.5913M10.8665 18.5913V18.6213M10.8665 18.5913V18.6213M10.8665 18.6213V18.6514M10.8665 18.6213V18.6514M10.8665 18.6514V18.6814M10.8665 18.6514V18.6814M10.8665 18.6814V18.7114M10.8665 18.6814V18.7114M10.8665 18.7114V18.7414M10.8665 18.7114V18.7414M10.8665 18.7414V18.7715M10.8665 18.7414V18.7715M10.8665 18.7715V18.8015M10.8665 18.7715V18.8015M10.8665 18.8015V18.8315M10.8665 18.8015V18.8315M10.8665 18.8315V18.8615M10.8665 18.8315V18.8615M10.8665 18.8615V18.8916M10.8665 18.8615V18.8916M10.8665 18.8916V18.9216M10.8665 18.8916V18.9216M10.8665 18.9216V18.9516M10.8665 18.9216V18.9516M10.8665 18.9516V18.9816M10.8665 18.9516V18.9816M10.8665 18.9816V19.0117M10.8665 18.9816V19.0117M10.8665 19.0117V19.0417M10.8665 19.0117V19.0417M10.8665 19.0417V19.0717M10.8665 19.0417V19.0717M10.8665 19.0717V19.1018M10.8665 19.0717V19.1018M10.8665 19.1018V19.1318M10.8665 19.1018V19.1318M10.8665 19.1318V19.1618M10.8665 19.1318V19.1618M10.8665 19.1618V19.1918M10.8665 19.1618V19.1918M10.8665 19.1918V19.2219M10.8665 19.1918V19.2219M10.8665 19.2219V19.2519M10.8665 19.2219V19.2519M10.8665 19.2519V19.2819M10.8665 19.2519V19.2819M10.8665 19.2819V19.3119M10.8665 19.2819V19.3119M10.8665 19.3119V19.342M10.8665 19.3119V19.342M10.8665 19.342V19.372M10.8665 19.342V19.372M10.8665 19.372V19.402M10.8665 19.372V19.402M10.8665 19.402V19.432M10.8665 19.402V19.432M10.8665 19.432V19.4621M10.8665 19.432V19.4621M10.8665 19.4621V19.4921M10.8665 19.4621V19.4921M10.8665 19.4921V19.5221M10.8665 19.4921V19.5221M10.8665 19.5221V19.5521M10.8665 19.5221V19.5521M10.8665 19.5521V19.5822M10.8665 19.5521V19.5822M10.8665 19.5822V19.6122M10.8665 19.5822V19.6122M10.8665 19.6122V19.6422M10.8665 19.6122V19.6422M10.8665 19.6422V19.6722M10.8665 19.6422V19.6722M10.8665 19.6722V19.7023M10.8665 19.6722V19.7023M10.8665 19.7023V19.7323M10.8665 19.7023V19.7323M10.8665 19.7323V19.7623M10.8665 19.7323V19.7623M10.8665 19.7623V19.7924M10.8665 19.7623V19.7924M10.8665 19.7924V19.8224M10.8665 19.7924V19.8224M10.8665 19.8224V19.8524M10.8665 19.8224V19.8524M10.8665 19.8524V19.8824M10.8665 19.8524V19.8824M10.8665 19.8824V19.9125M10.8665 19.8824V19.9125M10.8665 19.9125V19.9425M10.8665 19.9125V19.9425M10.8665 19.9425V19.9725M10.8665 19.9425V19.9725M10.8665 19.9725V20.0025M10.8665 19.9725V20.0025M10.8665 20.0025V20.0326M10.8665 20.0025V20.0326M10.8665 20.0326V20.0626M10.8665 20.0326V20.0626M10.8665 20.0626V20.0926M10.8665 20.0626V20.0926M10.8665 20.0926V20.1226M10.8665 20.0926V20.1226M10.8665 20.1226V20.1527M10.8665 20.1226V20.1527M10.8665 20.1527V20.1827M10.8665 20.1527V20.1827M10.8665 20.1827V20.2127M10.8665 20.1827V20.2127M10.8665 20.2127V20.2427M10.8665 20.2127V20.2427M10.8665 20.2427V20.2728M10.8665 20.2427V20.2728M10.8665 20.2728V20.3028M10.8665 20.2728V20.3028M10.8665 20.3028V20.3328M10.8665 20.3028V20.3328M10.8665 20.3328V20.3629M10.8665 20.3328V20.3629M10.8665 20.3629V20.3929M10.8665 20.3629V20.3929M10.8665 20.3929V20.4229M10.8665 20.3929V20.4229M10.8665 20.4229V20.4529M10.8665 20.4229V20.4529M10.8665 20.4529V20.483M10.8665 20.4529V20.483M10.8665 20.483V20.513M10.8665 20.483V20.513M10.8665 20.513V20.543M10.8665 20.513V20.543M10.8665 20.543V20.573M10.8665 20.543V20.573M10.8665 20.573V20.6031M10.8665 20.573V20.6031M10.8665 20.6031V20.6331M10.8665 20.6031V20.6331M10.8665 20.6331V20.6631M10.8665 20.6331V20.6631M10.8665 20.6631V20.6931M10.8665 20.6631V20.6931M10.8665 20.6931V20.7232M10.8665 20.6931V20.7232M10.8665 20.7232V20.7532M10.8665 20.7232V20.7532M10.8665 20.7532V20.7832M10.8665 20.7532V20.7832M10.8665 20.7832V20.8132M10.8665 20.7832V20.8132M10.8665 20.8132V20.8433M10.8665 20.8132V20.8433M10.8665 20.8433V20.8733M10.8665 20.8433V20.8733M10.8665 20.8733V20.9033M10.8665 20.8733V20.9033M10.8665 20.9033V20.9334M10.8665 20.9033V20.9334M10.8665 20.9334V20.9634M10.8665 20.9334V20.9634M10.8665 20.9634V20.9934M10.8665 20.9634V20.9934M10.8665 20.9934V21.0234M10.8665 20.9934V21.0234M10.8665 21.0234V21.0535M10.8665 21.0234V21.0535M10.8665 21.0535V21.0835M10.8665 21.0535V21.0835M10.8665 21.0835V21.1135M10.8665 21.0835V21.1135M10.8665 21.1135V21.1435M10.8665 21.1135V21.1435M10.8665 21.1435V21.1736M10.8665 21.1435V21.1736M10.8665 21.1736V21.2036M10.8665 21.1736V21.2036M10.8665 21.2036V21.2336M10.8665 21.2036V21.2336M10.8665 21.2336V21.2636M10.8665 21.2336V21.2636M10.8665 21.2636V21.2937M10.8665 21.2636V21.2937M10.8665 21.2937V21.3237M10.8665 21.2937V21.3237M10.8665 21.3237V21.3537M10.8665 21.3237V21.3537M10.8665 21.3537V21.3837M10.8665 21.3537V21.3837M10.8665 21.3837V21.4138M10.8665 21.3837V21.4138M10.8665 21.4138V21.4438M10.8665 21.4138V21.4438M10.8665 21.4438V21.4738M10.8665 21.4438V21.4738M10.8665 21.4738V21.5039M10.8665 21.4738V21.5039M10.8665 21.5039V21.5339M10.8665 21.5039V21.5339M10.8665 21.5339V21.5639M10.8665 21.5339V21.5639M10.8665 21.5639V21.5939M10.8665 21.5639V21.5939M10.8665 21.5939V21.624M10.8665 21.5939V21.624M10.8665 21.624V21.654M10.8665 21.624V21.654M10.8665 21.654V21.684M10.8665 21.654V21.684M10.8665 21.684V21.714M10.8665 21.684V21.714M10.8665 21.714V21.7441M10.8665 21.714V21.7441M10.8665 21.7441V21.7741M10.8665 21.7441V21.7741M10.8665 21.7741V21.8041M10.8665 21.7741V21.8041M10.8665 21.8041V21.8341M10.8665 21.8041V21.8341M10.8665 21.8341V21.8642M10.8665 21.8341V21.8642M10.8665 21.8642V21.8942M10.8665 21.8642V21.8942M10.8665 21.8942V21.9242M10.8665 21.8942V21.9242M10.8665 21.9242V21.9543M10.8665 21.9242V21.9543M10.8665 21.9543V21.9843M10.8665 21.9543V21.9843M10.8665 21.9843V22.0143M10.8665 21.9843V22.0143M10.8665 22.0143V22.0443M10.8665 22.0143V22.0443M10.8665 22.0443V22.0744M10.8665 22.0443V22.0744M10.8665 22.0744V22.1044M10.8665 22.0744V22.1044M10.8665 22.1044V22.1344M10.8665 22.1044V22.1344M10.8665 22.1344V22.1644M10.8665 22.1344V22.1644M10.8665 22.1644V22.1945M10.8665 22.1644V22.1945M10.8665 22.1945V22.2245M10.8665 22.1945V22.2245M10.8665 22.2245V22.2545M10.8665 22.2245V22.2545M10.8665 22.2545V22.2845M10.8665 22.2545V22.2845M10.8665 22.2845V22.3146M10.8665 22.2845V22.3146M10.8665 22.3146V22.3446M10.8665 22.3146V22.3446M10.8665 22.3446V22.3746M10.8665 22.3446V22.3746M10.8665 22.3746V22.4046M10.8665 22.3746V22.4046M10.8665 22.4046V22.4347M10.8665 22.4046V22.4347M10.8665 22.4347V22.4647M10.8665 22.4347V22.4647M10.8665 22.4647V22.4947M10.8665 22.4647V22.4947M10.8665 22.4947V22.5248M10.8665 22.4947V22.5248M10.8665 22.5248V22.5548M10.8665 22.5248V22.5548M10.8665 22.5548V22.5848M10.8665 22.5548V22.5848M10.8665 22.5848V22.6148M10.8665 22.5848V22.6148M10.8665 22.6148V22.6449M10.8665 22.6148V22.6449M10.8665 22.6449V22.6749M10.8665 22.6449V22.6749M10.8665 22.6749V22.7049M10.8665 22.6749V22.7049M10.8665 22.7049V22.7349M10.8665 22.7049V22.7349M10.8665 22.7349V22.765M10.8665 22.7349V22.765M10.8665 22.765V22.795M10.8665 22.765V22.795M10.8665 22.795V22.825M10.8665 22.795V22.825M10.8665 22.825V22.855M10.8665 22.825V22.855M10.8665 22.855V22.8851M10.8665 22.855V22.8851M10.8665 22.8851V22.9151M10.8665 22.8851V22.9151M10.8665 22.9151V22.9451M10.8665 22.9151V22.9451M10.8665 22.9451V22.9752M10.8665 22.9451V22.9752M10.8665 22.9752V23.0052M10.8665 22.9752V23.0052M10.8665 23.0052V23.0352M10.8665 23.0052V23.0352M10.8665 23.0352V23.0652M10.8665 23.0352V23.0652M10.8665 23.0652V23.0953M10.8665 23.0652V23.0953M10.8665 23.0953V23.1253M10.8665 23.0953V23.1253M10.8665 23.1253V23.1553M10.8665 23.1253V23.1553M10.8665 23.1553V23.1853M10.8665 23.1553V23.1853M10.8665 23.1853V23.2154M10.8665 23.1853V23.2154M10.8665 23.2154V23.2454M10.8665 23.2154V23.2454M10.8665 23.2454V23.2754M10.8665 23.2454V23.2754M10.8665 23.2754V23.3054M10.8665 23.2754V23.3054M10.8665 23.3054V23.3355M10.8665 23.3054V23.3355M10.8665 23.3355V23.3655M10.8665 23.3355V23.3655M10.8665 23.3655V23.3955M10.8665 23.3655V23.3955M10.8665 23.3955V23.4256M10.8665 23.3955V23.4256M10.8665 23.4256V23.4556M10.8665 23.4256V23.4556M10.8665 23.4556V23.4856M10.8665 23.4556V23.4856M10.8665 23.4856V23.5156M10.8665 23.4856V23.5156M10.8665 23.5156V23.5457M10.8665 23.5156V23.5457M10.8665 23.5457V23.5757M10.8665 23.5457V23.5757M10.8665 23.5757V23.6057M10.8665 23.5757V23.6057M10.8665 23.6057V23.6357M10.8665 23.6057V23.6357M10.8665 23.6357V23.6658M10.8665 23.6357V23.6658M10.8665 23.6658V23.6958M10.8665 23.6658V23.6958M10.8665 23.6958V23.7258M10.8665 23.6958V23.7258M10.8665 23.7258V23.7558M10.8665 23.7258V23.7558M10.8665 23.7558V23.7859M10.8665 23.7558V23.7859M10.8665 23.7859V23.8159M10.8665 23.7859V23.8159M10.8665 23.8159V23.8459M10.8665 23.8159V23.8459M10.8665 23.8459V23.8759M10.8665 23.8459V23.8759M10.8665 23.8759V23.906M10.8665 23.8759V23.906M10.8665 23.906V23.936M10.8665 23.906V23.936M10.8665 23.936V23.966M10.8665 23.936V23.966M10.8665 23.966V23.9961M10.8665 23.966V23.9961M10.8665 23.9961V24.0261M10.8665 23.9961V24.0261M10.8665 24.0261V24.0561M10.8665 24.0261V24.0561M10.8665 24.0561V24.0861M10.8665 24.0561V24.0861M10.8665 24.0861V24.1162M10.8665 24.0861V24.1162M10.8665 24.1162V24.1462M10.8665 24.1162V24.1462M10.8665 24.1462V24.1762M10.8665 24.1462V24.1762M10.8665 24.1762V24.2062M10.8665 24.1762V24.2062M10.8665 24.2062V24.2363M10.8665 24.2062V24.2363M10.8665 24.2363V24.2663M10.8665 24.2363V24.2663M10.8665 24.2663V24.2963M10.8665 24.2663V24.2963M10.8665 24.2963V24.3264M10.8665 24.2963V24.3264M10.8665 24.3264V24.3564M10.8665 24.3264V24.3564M10.8665 24.3564V24.3864M10.8665 24.3564V24.3864M10.8665 24.3864V24.4164M10.8665 24.3864V24.4164M10.8665 24.4164V24.4465M10.8665 24.4164V24.4465M10.8665 24.4465V24.4765M10.8665 24.4465V24.4765M10.8665 24.4765V24.5065M10.8665 24.4765V24.5065M10.8665 24.5065V24.5365M10.8665 24.5065V24.5365M10.8665 24.5365V24.5666M10.8665 24.5365V24.5666M10.8665 24.5666V24.5966M10.8665 24.5666V24.5966M10.8665 24.5966V24.6266M10.8665 24.5966V24.6266M10.8665 24.6266V24.6566M10.8665 24.6266V24.6566M10.8665 24.6566V24.6867M10.8665 24.6566V24.6867M10.8665 24.6867V24.7167M10.8665 24.6867V24.7167M10.8665 24.7167V24.7467M10.8665 24.7167V24.7467M10.8665 24.7467V24.7768M10.8665 24.7467V24.7768M10.8665 24.7768V24.8068M10.8665 24.7768V24.8068M10.8665 24.8068V24.8368M10.8665 24.8068V24.8368M10.8665 24.8368V24.8668M10.8665 24.8368V24.8668M10.8665 24.8668V24.8969M10.8665 24.8668V24.8969M10.8665 24.8969V24.9269M10.8665 24.8969V24.9269M10.8665 24.9269V24.9569M10.8665 24.9269V24.9569M10.8665 24.9569V24.9869M10.8665 24.9569V24.9869M10.8665 24.9869V25.017M10.8665 24.9869V25.017M10.8665 25.017V25.047M10.8665 25.017V25.047M10.8665 25.047V25.077M10.8665 25.047V25.077M10.8665 25.077V25.107M10.8665 25.077V25.107M10.8665 25.107V25.1371M10.8665 25.107V25.1371M10.8665 25.1371V25.1671M10.8665 25.1371V25.1671M10.8665 25.1671V25.1971M10.8665 25.1671V25.1971M10.8665 25.1971V25.2272M10.8665 25.1971V25.2272M10.8665 25.2272V25.2572M10.8665 25.2272V25.2572M10.8665 25.2572V25.2872M10.8665 25.2572V25.2872M10.8665 25.2872V25.3172M10.8665 25.2872V25.3172M10.8665 25.3172V25.3473M10.8665 25.3172V25.3473M10.8665 25.3473V25.3773M10.8665 25.3473V25.3773M10.8665 25.3773V25.4073M10.8665 25.3773V25.4073M10.8665 25.4073V25.4373M10.8665 25.4073V25.4373M10.8665 25.4373V25.4674M10.8665 25.4373V25.4674M10.8665 25.4674V25.4974M10.8665 25.4674V25.4974M10.8665 25.4974V25.5274M10.8665 25.4974V25.5274M10.8665 25.5274V25.5575M10.8665 25.5274V25.5575M10.8665 25.5575V25.5875M10.8665 25.5575V25.5875M10.8665 25.5875V25.6175M10.8665 25.5875V25.6175M10.8665 25.6175V25.6475M10.8665 25.6175V25.6475M10.8665 25.6475V25.6776M10.8665 25.6475V25.6776M10.8665 25.6776V25.7076M10.8665 25.6776V25.7076M10.8665 25.7076V25.7376M10.8665 25.7076V25.7376M10.8665 25.7376V25.7676M10.8665 25.7376V25.7676M10.8665 25.7676V25.7977M10.8665 25.7676V25.7977M10.8665 25.7977V25.8277M10.8665 25.7977V25.8277M10.8665 25.8277V25.8577M10.8665 25.8277V25.8577M10.8665 25.8577V25.8877M10.8665 25.8577V25.8877M10.8665 25.8877V25.9178M10.8665 25.8877V25.9178M10.8665 25.9178V25.9478M10.8665 25.9178V25.9478M10.8665 25.9478V25.9778M10.8665 25.9478V25.9778M10.8665 25.9778V26.0079M10.8665 25.9778V26.0079M10.8665 26.0079V26.0379M10.8665 26.0079V26.0379M10.8665 26.0379V26.0679M10.8665 26.0379V26.0679M10.8665 26.0679V26.0979M10.8665 26.0679V26.0979M10.8665 26.0979V26.128M10.8665 26.0979V26.128M10.8665 26.128V26.158M10.8665 26.128V26.158M10.8665 26.158V26.188M10.8665 26.158V26.188M10.8665 26.188V26.218M10.8665 26.188V26.218M10.8665 26.218V26.2481M10.8665 26.218V26.2481M10.8665 26.2481V26.2781M10.8665 26.2481V26.2781M10.8665 26.2781V26.3081M10.8665 26.2781V26.3081M10.8665 26.3081V26.3382M10.8665 26.3081V26.3382M10.8665 26.3382V26.3682M10.8665 26.3382V26.3682M10.8665 26.3682V26.3982M10.8665 26.3682V26.3982M10.8665 26.3982V26.4282M10.8665 26.3982V26.4282M10.8665 26.4282V26.4583M10.8665 26.4282V26.4583M10.8665 26.4583V26.4883M10.8665 26.4583V26.4883M10.8665 26.4883V26.5183M10.8665 26.4883V26.5183M10.8665 26.5183V26.5483M10.8665 26.5183V26.5483M10.8665 26.5483V26.5784M10.8665 26.5483V26.5784M10.8665 26.5784V26.6084M10.8665 26.5784V26.6084M10.8665 26.6084V26.6384M10.8665 26.6084V26.6384M10.8665 26.6384V26.6684M10.8665 26.6384V26.6684M10.8665 26.6684V26.6985M10.8665 26.6684V26.6985M10.8665 26.6985V26.7285M10.8665 26.6985V26.7285M10.8665 26.7285V26.7585M10.8665 26.7285V26.7585M10.8665 26.7585V26.7886M10.8665 26.7585V26.7886M10.8665 26.7886V26.8186M10.8665 26.7886V26.8186M10.8665 26.8186V26.8486M10.8665 26.8186V26.8486M10.8665 26.8486V26.8786M10.8665 26.8486V26.8786M10.8665 26.8786V26.9087M10.8665 26.8786V26.9087M10.8665 26.9087V26.9387M10.8665 26.9087V26.9387M10.8665 26.9387V26.9687M10.8665 26.9387V26.9687M10.8665 26.9687V26.9987M10.8665 26.9687V26.9987M10.8665 26.9987V27.0288M10.8665 26.9987V27.0288M10.8665 27.0288V27.0588M10.8665 27.0288V27.0588M10.8665 27.0588V27.0888M10.8665 27.0588V27.0888M10.8665 27.0888V27.1189M10.8665 27.0888V27.1189M10.8665 27.1189V27.1489M10.8665 27.1189V27.1489M10.8665 27.1489V27.1789M10.8665 27.1489V27.1789M10.8665 27.1789V27.2089M10.8665 27.1789V27.2089M10.8665 27.2089V27.239M10.8665 27.2089V27.239M10.8665 27.239V27.269M10.8665 27.239V27.269M10.8665 27.269V27.299M10.8665 27.269V27.299M10.8665 27.299V27.329M10.8665 27.299V27.329M10.8665 27.329V27.3591M10.8665 27.329V27.3591M10.8665 27.3591V27.3891M10.8665 27.3591V27.3891M10.8665 27.3891V27.4191M10.8665 27.3891V27.4191M10.8665 27.4191V27.4492M10.8665 27.4191V27.4492M10.8665 27.4492V27.4792M10.8665 27.4492V27.4792M10.8665 27.4792V27.5092M10.8665 27.4792V27.5092M10.8665 27.5092V27.5392M10.8665 27.5092V27.5392M10.8665 27.5392V27.5693M10.8665 27.5392V27.5693M10.8665 27.5693V27.5993M10.8665 27.5693V27.5993M10.8665 27.5993V27.6293M10.8665 27.5993V27.6293M10.8665 27.6293C10.8665 27.6312 10.8665 27.6338 10.8665 27.637M10.8665 27.6293L10.8665 27.637M10.8665 27.637C10.8663 27.6673 10.8659 27.7531 10.8734 27.8357M10.8665 27.637L10.8734 27.8357M10.8734 27.8357C10.8821 27.9305 10.9076 28.1219 11.0211 28.3243M10.8734 27.8357L11.0211 28.3243M11.0211 28.3243C11.3181 28.8536 11.8555 28.9145 12.0995 28.914L11.0211 28.3243ZM33.3086 28.8957L34.2569 28.8466V27.897V6.40624V5.40624H33.2569H20.4505H19.5234L19.4534 6.33069C19.4527 6.34002 19.4522 6.34466 19.4511 6.35515C19.4505 6.36194 19.4495 6.37118 19.4481 6.38574C19.4455 6.41292 19.4399 6.47247 19.4399 6.54252C19.4399 8.81009 19.4416 11.0773 19.4452 13.3443L19.4452 13.3693L19.4465 13.3944C19.4635 13.723 19.5961 14.036 19.8222 14.277L19.8321 14.2876L19.8423 14.2978C21.8414 16.3091 23.8443 18.3164 25.851 20.3197C25.8469 21.5278 25.8463 22.7356 25.8457 23.9416C25.8451 25.1723 25.8445 26.4013 25.8402 27.6302V27.6337C25.8402 27.7796 25.8445 28.2522 26.2346 28.6033C26.5826 28.9166 27.0093 28.9127 27.1211 28.9117C27.1251 28.9116 27.1287 28.9116 27.1319 28.9116C28.5582 28.9067 29.9836 28.9071 31.4112 28.9075C31.9559 28.9077 32.5009 28.9078 33.0464 28.9077L33.0539 28.9077C33.1252 28.9071 33.2246 28.9009 33.2778 28.8975C33.2916 28.8967 33.3023 28.896 33.3086 28.8957ZM10.75 5.24286H34.4V29.0429H10.75V5.24286Z" fill="url(#paint0_linear_12_2451)" stroke="#CCCCCC" stroke-width="2"/>
<defs>
<linearGradient id="paint0_linear_12_2451" x1="9.75" y1="4.24286" x2="35.4" y2="30.9429" gradientUnits="userSpaceOnUse">
<stop stop-color="#F2F2F2"/>
<stop offset="0.255208" stop-color="#D3D3D3"/>
<stop offset="0.505208" stop-color="#CECDC9"/>
<stop offset="0.744792" stop-color="#848484"/>
<stop offset="1" stop-color="#363636"/>
</linearGradient>
</defs>
</svg>
